<?xml version="1.0" encoding="UTF-8" standalone="no"?>
<svg
   height="10"
   viewBox="0 0 10 10"
   width="10"
   version="1.1"
   id="svg435"
   sodipodi:docname="Pause.svg"
   xmlns:inkscape="http://www.inkscape.org/namespaces/inkscape"
   xmlns:sodipodi="http://sodipodi.sourceforge.net/DTD/sodipodi-0.dtd"
   xmlns="http://www.w3.org/2000/svg"
   xmlns:svg="http://www.w3.org/2000/svg">
  <defs
     id="defs439" />
  <sodipodi:namedview
     id="namedview437"
     pagecolor="#ffffff"
     bordercolor="#000000"
     borderopacity="0.25"
     inkscape:showpageshadow="2"
     inkscape:pageopacity="0.0"
     inkscape:pagecheckerboard="0"
     inkscape:deskcolor="#d1d1d1"
     showgrid="false" />
  <path
     d="M 1,0 A 1,1 0 0 0 0,1 v 8 a 1,1 0 0 0 1,1 H 3 A 1,1 0 0 0 4,9 V 1 A 1,1 0 0 0 3,0 Z M 7,0 A 1,1 0 0 0 6,1 v 8 a 1,1 0 0 0 1,1 H 9 A 1,1 0 0 0 10,9 V 1 A 1,1 0 0 0 9,0 Z"
     fill="#e0e0e0"
     id="path433" />
</svg>
