<?xml version="1.0" encoding="UTF-8" standalone="no"?>
<svg
   height="13.4844"
   viewBox="0 0 13.4844 13.4844"
   width="13.4844"
   version="1.1"
   id="svg685"
   sodipodi:docname="Search.svg"
   xmlns:inkscape="http://www.inkscape.org/namespaces/inkscape"
   xmlns:sodipodi="http://sodipodi.sourceforge.net/DTD/sodipodi-0.dtd"
   xmlns="http://www.w3.org/2000/svg"
   xmlns:svg="http://www.w3.org/2000/svg">
  <defs
     id="defs689" />
  <sodipodi:namedview
     id="namedview687"
     pagecolor="#ffffff"
     bordercolor="#000000"
     borderopacity="0.25"
     inkscape:showpageshadow="2"
     inkscape:pageopacity="0.0"
     inkscape:pagecheckerboard="0"
     inkscape:deskcolor="#d1d1d1"
     showgrid="false" />
  <path
     d="M 5,2.9981136e-5 A 5,5 0 0 0 0,5.00003 a 5,5 0 0 0 5,5 A 5,5 0 0 0 7.7539,9.168 l 4.3164,4.3164 1.4141,-1.4141 L 9.168,7.7539 A 5,5 0 0 0 10.00003,5 5,5 0 0 0 5.00003,-1.8863677e-8 Z M 5,2.00003 a 3,3 0 0 1 3,3 3,3 0 0 1 -3,3 3,3 0 0 1 -3,-3 3,3 0 0 1 3,-3 z"
     fill="#e0e0e0"
     id="path683" />
</svg>
