<?xml version="1.0" encoding="UTF-8" standalone="no"?>
<svg
   height="48px"
   viewBox="0 -960 960 960"
   width="48px"
   fill="#FFFFFF"
   version="1.1"
   id="svg1"
   sodipodi:docname="add_circle_48dp_FFFFFF_FILL1_wght500_GRAD0_opsz48.svg"
   inkscape:version="1.4 (e7c3feb100, 2024-10-09)"
   xmlns:inkscape="http://www.inkscape.org/namespaces/inkscape"
   xmlns:sodipodi="http://sodipodi.sourceforge.net/DTD/sodipodi-0.dtd"
   xmlns="http://www.w3.org/2000/svg"
   xmlns:svg="http://www.w3.org/2000/svg">
  <defs
     id="defs1" />
  <sodipodi:namedview
     id="namedview1"
     pagecolor="#ffffff"
     bordercolor="#000000"
     borderopacity="0.25"
     inkscape:showpageshadow="2"
     inkscape:pageopacity="0.0"
     inkscape:pagecheckerboard="0"
     inkscape:deskcolor="#d1d1d1"
     inkscape:zoom="7.5424723"
     inkscape:cx="29.764776"
     inkscape:cy="37.388271"
     inkscape:window-width="1920"
     inkscape:window-height="1080"
     inkscape:window-x="0"
     inkscape:window-y="0"
     inkscape:window-maximized="1"
     inkscape:current-layer="svg1" />
  <path
     d="M451.57-278.57h62.86v-166h167v-62.86h-167v-174h-62.86v174h-173v62.86h173v166ZM480.3-74.02q-84.2 0-158.04-31.88-73.84-31.88-129.16-87.2-55.32-55.32-87.2-129.2-31.88-73.88-31.88-158.17 0-84.28 31.88-158.2 31.88-73.91 87.16-128.74 55.28-54.84 129.18-86.82 73.9-31.99 158.21-31.99 84.3 0 158.25 31.97 73.94 31.97 128.75 86.77 54.82 54.8 86.79 128.88 31.98 74.08 31.98 158.33 0 84.24-31.99 158.07-31.98 73.84-86.82 128.95-54.83 55.1-128.87 87.17Q564.5-74.02 480.3-74.02Z"
     id="path1"
     style="fill:#808080" />
</svg>
