<?xml version="1.0" encoding="UTF-8" standalone="no"?>
<svg
   height="48px"
   viewBox="0 -960 960 960"
   width="48px"
   fill="#FFFFFF"
   version="1.1"
   id="svg1"
   sodipodi:docname="audio_file_48dp_FFFFFF_FILL1_wght500_GRAD0_opsz48.svg"
   inkscape:version="1.4 (e7c3feb100, 2024-10-09)"
   xmlns:inkscape="http://www.inkscape.org/namespaces/inkscape"
   xmlns:sodipodi="http://sodipodi.sourceforge.net/DTD/sodipodi-0.dtd"
   xmlns="http://www.w3.org/2000/svg"
   xmlns:svg="http://www.w3.org/2000/svg">
  <defs
     id="defs1" />
  <sodipodi:namedview
     id="namedview1"
     pagecolor="#ffffff"
     bordercolor="#000000"
     borderopacity="0.25"
     inkscape:showpageshadow="2"
     inkscape:pageopacity="0.0"
     inkscape:pagecheckerboard="0"
     inkscape:deskcolor="#d1d1d1"
     inkscape:zoom="3.0208333"
     inkscape:cx="24"
     inkscape:cy="23.834483"
     inkscape:window-width="954"
     inkscape:window-height="1050"
     inkscape:window-x="960"
     inkscape:window-y="24"
     inkscape:window-maximized="1"
     inkscape:current-layer="svg1" />
  <path
     d="M426.88-190.57q41.6 0 71.08-28.9 29.47-28.91 29.47-70.29v-204.87h116v-60h-156v188.91q-11.23-9.24-27.18-14.48-15.94-5.23-33.25-5.23-39.72 0-67.08 27.85-27.35 27.86-27.35 67.46 0 40.6 27.35 70.08 27.36 29.47 66.96 29.47ZM222.15-74.02q-27.6 0-47.86-20.27-20.27-20.26-20.27-47.86v-675.7q0-27.7 20.27-48.03 20.26-20.34 47.86-20.34h361.48l222.59 222.59v521.48q0 27.6-20.34 47.86-20.33 20.27-48.03 20.27h-515.7Zm326.7-557.83h189l-189-186v186Z"
     id="path1"
     style="fill:#808080" />
</svg>
