<?xml version="1.0" encoding="UTF-8" standalone="no"?>
<svg
   height="48px"
   viewBox="0 -960 960 960"
   width="48px"
   fill="#080808"
   version="1.1"
   id="svg1"
   sodipodi:docname="link_off.svg"
   xml:space="preserve"
   inkscape:version="1.4.4 (dcaf3e7d9e, 2026-05-05)"
   xmlns:inkscape="http://www.inkscape.org/namespaces/inkscape"
   xmlns:sodipodi="http://sodipodi.sourceforge.net/DTD/sodipodi-0.dtd"
   xmlns="http://www.w3.org/2000/svg"
   xmlns:svg="http://www.w3.org/2000/svg"><defs
     id="defs1" /><sodipodi:namedview
     id="namedview1"
     pagecolor="#505050"
     bordercolor="#eeeeee"
     borderopacity="1"
     inkscape:showpageshadow="0"
     inkscape:pageopacity="0"
     inkscape:pagecheckerboard="0"
     inkscape:deskcolor="#d1d1d1"
     inkscape:zoom="8.3158704"
     inkscape:cx="33.79081"
     inkscape:cy="20.021957"
     inkscape:window-width="1276"
     inkscape:window-height="1394"
     inkscape:window-x="0"
     inkscape:window-y="0"
     inkscape:window-maximized="1"
     inkscape:current-layer="svg1" /><path
     id="path1"
     style="display:inline;fill:#808080;fill-opacity:1"
     inkscape:label="chain"
     d="M 651.99219 -866.01562 C 623.32552 -866.01562 596 -860.31771 570 -848.98438 C 544 -837.65104 521.01562 -821.99219 501.01562 -801.99219 L 396.99219 -697.96875 L 462.61719 -632.34375 L 566.99219 -736.01562 C 578.32552 -747.34896 591 -755.81771 605 -761.48438 C 619 -767.15104 634.34896 -770 651.01562 -770 C 684.34896 -770 712.68229 -757.98438 736.01562 -733.98438 C 759.34896 -709.98438 771.01562 -681.34115 771.01562 -648.00781 C 771.01563 -632.00781 767.81771 -617.00781 761.48438 -603.00781 C 755.15104 -589.00781 746.99219 -576.99219 736.99219 -566.99219 L 632.5 -462.5 L 699.14062 -395.85938 L 803.98438 -500 C 823.31771 -519.33333 838.49219 -542.00781 849.49219 -568.00781 C 860.49219 -594.00781 866.01563 -621.68229 866.01562 -651.01562 C 866.01562 -710.34896 845.18229 -761.00781 803.51562 -803.00781 C 761.84896 -845.00781 711.32552 -866.01562 651.99219 -866.01562 z M 352.07031 -653.04688 L 351.01562 -651.99219 L 416.01562 -586.01562 L 417.53906 -587.53906 L 352.07031 -653.04688 z M 568.98438 -633.98438 L 514.76562 -580.19531 L 580.58594 -514.41406 L 633.98438 -568.00781 L 568.98438 -633.98438 z M 306.99219 -610 L 156.99219 -460 C 136.32552 -440 120.84115 -416.84115 110.50781 -390.50781 C 100.17448 -364.17448 95 -336.98438 95 -308.98438 C 95 -248.98437 115.65885 -198.32552 156.99219 -156.99219 C 198.32552 -115.65885 248.98438 -95 308.98438 -95 C 336.98438 -95 364 -100.34896 390 -111.01562 C 416 -121.68229 439.33333 -136.99219 460 -156.99219 L 610 -306.99219 L 543.98438 -373.00781 L 393.98438 -223.98438 C 381.98438 -212.65104 368.82552 -203.83333 354.49219 -197.5 C 340.15885 -191.16667 324.98437 -188.00781 308.98438 -188.00781 C 274.98438 -188.00781 246.16667 -199.67448 222.5 -223.00781 C 198.83333 -246.34115 186.99219 -274.98438 186.99219 -308.98438 C 186.99219 -324.98438 190.01563 -340.33333 196.01562 -355 C 202.01563 -369.66667 211.00781 -382.65104 223.00781 -393.98438 L 373.00781 -543.00781 L 306.99219 -610 z M 469.60938 -535.42969 L 325 -391.99219 L 391.99219 -325 L 535.70312 -469.29688 L 469.60938 -535.42969 z M 587.5 -417.5 L 586.01562 -416.01562 L 652.92969 -352.03125 L 587.5 -417.5 z " /><path
     d="M 838.26,-31.91 17.15,-852.78 62.3,-897.93 882.93,-76.83 Z"
     id="path1-6"
     style="display:inline;fill:#808080"
     sodipodi:nodetypes="ccccc"
     transform="translate(29.96,-15.08)"
     inkscape:label="cross" /></svg>
