<?xml version="1.0" encoding="UTF-8" standalone="no"?>
<svg
   height="48px"
   viewBox="0 -960 960 960"
   width="48px"
   fill="#FFFFFF"
   version="1.1"
   id="svg1"
   sodipodi:docname="color_file.svg"
   inkscape:version="1.4.2 (ebf0e940d0, 2025-05-08)"
   xml:space="preserve"
   xmlns:inkscape="http://www.inkscape.org/namespaces/inkscape"
   xmlns:sodipodi="http://sodipodi.sourceforge.net/DTD/sodipodi-0.dtd"
   xmlns="http://www.w3.org/2000/svg"
   xmlns:svg="http://www.w3.org/2000/svg"><defs
     id="defs1" /><sodipodi:namedview
     id="namedview1"
     pagecolor="#ffffff"
     bordercolor="#000000"
     borderopacity="0.25"
     inkscape:showpageshadow="2"
     inkscape:pageopacity="0.0"
     inkscape:pagecheckerboard="0"
     inkscape:deskcolor="#d1d1d1"
     inkscape:zoom="8.5442068"
     inkscape:cx="30.020341"
     inkscape:cy="28.323284"
     inkscape:window-width="1920"
     inkscape:window-height="1080"
     inkscape:window-x="0"
     inkscape:window-y="0"
     inkscape:window-maximized="1"
     inkscape:current-layer="svg1" /><path
     id="path1"
     style="fill:#808080"
     d="M 222.14844 -886.21094 C 203.74844 -886.21094 187.80354 -879.45844 174.29688 -865.89844 C 160.78355 -852.34511 154.02344 -836.31823 154.02344 -817.85156 L 154.02344 -142.14844 C 154.02344 -123.74844 160.78355 -107.80354 174.29688 -94.296875 C 187.80354 -80.783542 203.74844 -74.023438 222.14844 -74.023438 L 737.85156 -74.023438 C 756.31823 -74.023438 772.34511 -80.783542 785.89844 -94.296875 C 799.45844 -107.80354 806.21094 -123.74844 806.21094 -142.14844 L 806.21094 -663.63281 L 583.63281 -886.21094 L 222.14844 -886.21094 z M 548.86719 -817.85156 L 737.85156 -631.83594 L 548.86719 -631.83594 L 548.86719 -817.85156 z M 483.08594 -558.67188 C 507.50792 -558.67188 530.8358 -554.49882 553.00781 -546.17188 C 575.17983 -537.84786 594.67748 -526.2745 611.5625 -511.48438 C 628.4446 -496.69718 641.88808 -479.19213 651.83594 -458.94531 C 661.78379 -438.6985 666.75781 -416.7854 666.75781 -393.20312 C 666.75781 -359.84855 657.39725 -332.49144 638.67188 -311.13281 C 619.9465 -289.77418 593.90145 -279.10156 560.54688 -279.10156 L 535.07812 -279.10156 C 530.39678 -279.10156 526.28445 -277.20203 522.77344 -273.39844 C 519.26243 -269.59485 517.53906 -265.34541 517.53906 -260.66406 C 517.53906 -255.39755 518.98822 -251.42232 521.91406 -248.78906 C 524.8399 -246.15581 526.28906 -241.76926 526.28906 -235.625 C 526.28906 -225.96973 521.42273 -215.16001 511.67969 -203.16406 C 501.93664 -191.16812 491.29343 -185.15625 479.76562 -185.15625 C 454.29911 -185.15625 430.24753 -190.08125 407.57812 -199.88281 C 384.90872 -209.68438 365.09487 -223.06919 348.125 -240.03906 C 331.15513 -257.00893 317.77031 -276.82863 307.96875 -299.49219 C 298.16719 -322.15574 293.24219 -346.22195 293.24219 -371.67969 C 293.24219 -397.74014 298.16719 -422.17845 307.96875 -445 C 317.77031 -467.82155 331.27365 -487.67651 348.51562 -504.57031 C 365.7576 -521.46119 385.94836 -534.66983 409.0625 -544.25781 C 432.17664 -553.84286 456.84115 -558.67188 483.08594 -558.67188 z M 435 -475.70312 C 428.85574 -475.70312 423.69559 -473.57841 419.45312 -469.33594 C 415.21066 -465.09347 413.08594 -459.98235 413.08594 -453.98438 C 413.08594 -447.9864 415.21066 -442.7872 419.45312 -438.39844 C 423.69559 -434.00968 428.80672 -431.83594 434.80469 -431.83594 C 440.80266 -431.83594 446.00186 -434.00968 450.39062 -438.39844 C 454.77938 -442.7872 456.95313 -447.89832 456.95312 -453.75 C 456.95312 -459.89426 454.77938 -465.09347 450.39062 -469.33594 C 446.00187 -473.57841 440.85168 -475.70313 435 -475.70312 z M 525 -475.70312 C 518.85574 -475.70312 513.65653 -473.57841 509.41406 -469.33594 C 505.17159 -465.09347 503.04688 -459.98235 503.04688 -453.98438 C 503.04687 -447.9864 505.17159 -442.7872 509.41406 -438.39844 C 513.65653 -434.00968 518.76765 -431.83594 524.76562 -431.83594 C 530.7636 -431.83594 535.9628 -434.00968 540.35156 -438.39844 C 544.74032 -442.7872 546.91406 -447.89832 546.91406 -453.75 C 546.91406 -459.89426 544.74032 -465.09347 540.35156 -469.33594 C 535.9628 -473.57841 530.85168 -475.70313 525 -475.70312 z M 381.48438 -404.17969 C 375.63269 -404.17969 370.48251 -401.96688 366.09375 -397.57812 C 361.70499 -393.18936 359.53125 -388.07824 359.53125 -382.22656 C 359.53125 -376.37488 361.70499 -371.26376 366.09375 -366.875 C 370.48251 -362.48624 375.6327 -360.27344 381.48438 -360.27344 C 387.33605 -360.27344 392.44718 -362.48624 396.83594 -366.875 C 401.2247 -371.26376 403.39844 -376.37488 403.39844 -382.22656 C 403.39844 -388.07824 401.2247 -393.18937 396.83594 -397.57812 C 392.44718 -401.96688 387.33606 -404.17969 381.48438 -404.17969 z M 579.41406 -404.17969 C 573.2698 -404.17969 568.07059 -401.96688 563.82812 -397.57812 C 559.58566 -393.18936 557.46094 -388.07824 557.46094 -382.22656 C 557.46094 -376.37488 559.58566 -371.26376 563.82812 -366.875 C 568.07059 -362.48624 573.2698 -360.27344 579.41406 -360.27344 C 585.26574 -360.27344 590.37687 -362.48624 594.76562 -366.875 C 599.15439 -371.26376 601.36719 -376.37488 601.36719 -382.22656 C 601.36719 -388.07824 599.15438 -393.18937 594.76562 -397.57812 C 590.37686 -401.96688 585.26574 -404.17969 579.41406 -404.17969 z " /></svg>
