<?xml version="1.0" encoding="UTF-8" standalone="no"?>
<svg
   height="48px"
   viewBox="0 -960 960 960"
   width="48px"
   fill="#ffffff"
   version="1.1"
   id="svg1"
   xml:space="preserve"
   xmlns="http://www.w3.org/2000/svg"
   xmlns:svg="http://www.w3.org/2000/svg"><defs
     id="defs1" /><path
     d="m 222.15,-74.02 c -18.4,0 -34.35333,-6.756667 -47.86,-20.27 -13.51333,-13.50667 -20.27,-29.46 -20.27,-47.86 v -675.7 c 0,-18.46667 6.75667,-34.47667 20.27,-48.03 13.50667,-13.56 29.46,-20.34 47.86,-20.34 h 361.48 l 222.59,222.59 v 521.48 c 0,18.4 -6.78,34.35333 -20.34,47.86 -13.55333,13.513333 -29.56333,20.27 -48.03,20.27 z m 326.7,-557.83 h 189 l -189,-186 z m -315.97793,358.6731 h 495.22 l -150.11,-201.74 -132,171 -93,-127 z"
     id="path1-7"
     style="fill:#ffffff"
     transform="translate(-0.12,0.12)" /></svg>
