<?xml version="1.0" encoding="UTF-8" standalone="no"?>
<!-- Created with Inkscape (http://www.inkscape.org/) -->

<svg
   width="200"
   height="170"
   viewBox="0 0 52.916665 44.979166"
   version="1.1"
   id="svg1"
   inkscape:version="1.3 (0e150ed6c4, 2023-07-21)"
   sodipodi:docname="FileExplorerIcons.svg"
   inkscape:export-filename="IconFileImage.png"
   inkscape:export-xdpi="96"
   inkscape:export-ydpi="96"
   xmlns:inkscape="http://www.inkscape.org/namespaces/inkscape"
   xmlns:sodipodi="http://sodipodi.sourceforge.net/DTD/sodipodi-0.dtd"
   xmlns="http://www.w3.org/2000/svg"
   xmlns:svg="http://www.w3.org/2000/svg">
  <sodipodi:namedview
     id="namedview1"
     pagecolor="#505050"
     bordercolor="#eeeeee"
     borderopacity="1"
     inkscape:showpageshadow="0"
     inkscape:pageopacity="0"
     inkscape:pagecheckerboard="0"
     inkscape:deskcolor="#505050"
     inkscape:document-units="mm"
     inkscape:zoom="2.0346998"
     inkscape:cx="98.048864"
     inkscape:cy="103.7008"
     inkscape:window-width="1920"
     inkscape:window-height="1057"
     inkscape:window-x="0"
     inkscape:window-y="23"
     inkscape:window-maximized="1"
     inkscape:current-layer="g5"
     showguides="true">
    <sodipodi:guide
       position="15.72139,6.0359968"
       orientation="0,-1"
       id="guide5"
       inkscape:locked="false" />
    <sodipodi:guide
       position="8.1834634,35.094645"
       orientation="0,-1"
       id="guide6"
       inkscape:locked="false" />
  </sodipodi:namedview>
  <defs
     id="defs1" />
  <g
     inkscape:label="FolderIconOpen"
     inkscape:groupmode="layer"
     id="layer1"
     transform="translate(-0.51026512,-1.2090807)"
     style="display:none">
    <rect
       style="fill-rule:evenodd;stroke-width:1.7;stroke-linecap:round;stroke-linejoin:round;stroke-miterlimit:0;paint-order:markers stroke fill"
       id="rect1"
       width="45.100403"
       height="32.769733"
       x="3.340466"
       y="9.0323982"
       rx="3.8039148"
       ry="3.8039148" />
    <rect
       style="fill-rule:evenodd;stroke-width:1.7;stroke-linecap:round;stroke-linejoin:round;stroke-miterlimit:0;paint-order:markers stroke fill"
       id="rect2"
       width="21.159019"
       height="27.912512"
       x="3.3514707"
       y="5.589375"
       rx="2.2166514"
       ry="2.2166514" />
    <path
       id="rect3"
       style="fill:#343434;fill-rule:evenodd;stroke-width:1.7;stroke-linecap:round;stroke-linejoin:round;stroke-miterlimit:0;paint-order:markers stroke fill"
       d="M 8.6804105,11.02803 H 47.406413 c 1.766731,0 3.344081,1.42913 3.189045,3.189045 l -2.149627,24.401833 c -0.155036,1.759915 -1.422314,3.189045 -3.189045,3.189045 H 6.5307837 c -1.7667308,0 -3.3440807,-1.42913 -3.1890448,-3.189045 L 5.4913657,14.217075 C 5.6464016,12.45716 6.9136797,11.02803 8.6804105,11.02803 Z"
       sodipodi:nodetypes="sssssssss" />
  </g>
  <g
     inkscape:label="FolderIconClosed"
     inkscape:groupmode="layer"
     id="g5"
     transform="translate(-0.51026512,-1.2090807)"
     style="display:inline">
    <rect
       style="fill-rule:evenodd;stroke-width:1.7;stroke-linecap:round;stroke-linejoin:round;stroke-miterlimit:0;paint-order:markers stroke fill;fill:#343434;fill-opacity:1"
       id="rect4"
       width="45.100403"
       height="32.769733"
       x="3.340466"
       y="9.0323982"
       rx="3.8039148"
       ry="3.8039148" />
    <rect
       style="fill-rule:evenodd;stroke-width:1.7;stroke-linecap:round;stroke-linejoin:round;stroke-miterlimit:0;paint-order:markers stroke fill;fill:#343434;fill-opacity:1"
       id="rect5"
       width="21.159019"
       height="27.912512"
       x="3.3514707"
       y="5.589375"
       rx="2.2166514"
       ry="2.2166514" />
    <text
       xml:space="preserve"
       style="font-size:41.5334px;line-height:0.8;font-family:'Chakra Petch';-inkscape-font-specification:'Chakra Petch';display:none;fill:#ffffff;fill-opacity:1;fill-rule:evenodd;stroke-width:1.00073;stroke-linecap:round;stroke-linejoin:round;stroke-miterlimit:0;paint-order:markers stroke fill"
       x="16.232214"
       y="40.193199"
       id="text5"
       inkscape:label="Unknown"><tspan
         sodipodi:role="line"
         id="tspan5"
         style="fill:#ffffff;fill-opacity:1;stroke-width:1.00073"
         x="0"
         y="0">?</tspan></text>
    <text
       xml:space="preserve"
       style="font-size:30.9873px;line-height:0.8;font-family:'Chakra Petch';-inkscape-font-specification:'Chakra Petch';display:none;fill:#ffffff;fill-opacity:1;fill-rule:evenodd;stroke-width:5.49388;stroke-linecap:round;stroke-linejoin:round;stroke-miterlimit:0;paint-order:markers stroke fill"
       x="10.946559"
       y="37.25095"
       id="text6"
       inkscape:label="Music"><tspan
         sodipodi:role="line"
         id="tspan6"
         style="font-size:30.9873px;fill:#ffffff;fill-opacity:1;stroke-width:5.49388"
         x="10.946559"
         y="37.25095">♫</tspan></text>
    <path
       d="m 17.946072,39.946143 c -0.790671,0 -1.432511,-0.353477 -1.925518,-1.06043 -0.483705,-0.697651 -0.837181,-1.823195 -1.06043,-3.376632 -0.213946,-1.553437 -0.320919,-3.599881 -0.320919,-6.139332 0,-2.548753 0.106973,-4.595197 0.320919,-6.139332 0.223249,-1.553437 0.576725,-2.678982 1.06043,-3.376633 0.493007,-0.706953 1.134847,-1.06043 1.925518,-1.06043 h 20.706293 c 0.799973,0 1.441812,0.353477 1.925517,1.06043 0.483705,0.697651 0.832531,1.823196 1.046477,3.376633 0.223249,1.544135 0.334873,3.590579 0.334873,6.139332 0,2.539451 -0.111624,4.585895 -0.334873,6.139332 -0.213946,1.553437 -0.562772,2.678981 -1.046477,3.376632 -0.483705,0.706953 -1.125544,1.06043 -1.925517,1.06043 z m -6.097473,-6.809077 c -0.23255,0 -0.446496,-0.07442 -0.641839,-0.223248 -0.186041,-0.158135 -0.316269,-0.358128 -0.390685,-0.599981 -0.09302,-0.353477 -0.204644,-1.004618 -0.334872,-1.953423 -0.130229,-0.958108 -0.195343,-2.330156 -0.195343,-4.116143 0,-1.516229 0.05116,-2.692935 0.153483,-3.530116 0.111625,-0.837182 0.2279,-1.418558 0.348826,-1.744129 0.08372,-0.23255 0.218597,-0.409288 0.404638,-0.530215 0.18604,-0.130228 0.390684,-0.195342 0.613933,-0.195342 h 4.116143 v 1.116242 h -3.753364 c -0.241853,0 -0.390685,0.116275 -0.446497,0.348826 -0.07442,0.325571 -0.148832,0.841833 -0.223248,1.548786 -0.06511,0.706953 -0.09767,1.702269 -0.09767,2.985948 0,1.460417 0.04186,2.62782 0.125578,3.502209 0.09302,0.865088 0.176738,1.506927 0.251154,1.925518 0.04651,0.232551 0.195346,0.348826 0.446497,0.348826 h 3.013854 v 1.116242 z m 6.530017,-10.381052 c -0.204645,0 -0.376732,-0.06511 -0.516262,-0.195343 -0.130228,-0.13953 -0.195342,-0.311617 -0.195342,-0.516262 0,-0.204644 0.06511,-0.37208 0.195342,-0.502309 0.13953,-0.13953 0.311617,-0.209295 0.516262,-0.209295 0.204645,0 0.372081,0.06977 0.502309,0.209295 0.13953,0.130229 0.209295,0.297665 0.209295,0.502309 0,0.204645 -0.06977,0.376732 -0.209295,0.516262 -0.130228,0.130229 -0.297664,0.195343 -0.502309,0.195343 z m 5.176573,13.283282 c -0.697651,0 -1.24647,-0.199993 -1.646457,-0.59998 -0.390685,-0.390685 -0.586027,-0.934854 -0.586027,-1.632505 V 32.50918 h -2.706888 v -1.116242 h 3.82313 v 2.413873 c 0,0.744162 0.372081,1.116243 1.116242,1.116243 h 11.622872 c 0.744161,0 1.116242,-0.372081 1.116242,-1.116243 v -8.427628 c 0,-0.744161 -0.372081,-1.116242 -1.116242,-1.116242 H 23.555189 c -0.744161,0 -1.116242,0.372081 -1.116242,1.116242 v 2.413874 h -3.82313 v -1.116243 h 2.706888 v -1.297631 c 0,-0.697651 0.195342,-1.241819 0.586027,-1.632504 0.399987,-0.399987 0.948806,-0.59998 1.646457,-0.59998 h 11.622872 c 0.697651,0 1.241819,0.199993 1.632504,0.59998 0.399987,0.390685 0.59998,0.934853 0.59998,1.632504 v 8.427628 c 0,0.697651 -0.199993,1.24182 -0.59998,1.632505 -0.390685,0.399987 -0.934853,0.59998 -1.632504,0.59998 z m -5.609117,2.790605 h 20.706293 c 0.539517,0 0.967409,-0.306967 1.283678,-0.9209 0.316269,-0.604631 0.544168,-1.595295 0.683699,-2.971994 0.148832,-1.386001 0.223248,-3.241753 0.223248,-5.567258 0,-2.334807 -0.07442,-4.190559 -0.223248,-5.567258 -0.139531,-1.386001 -0.36743,-2.381317 -0.683699,-2.985948 -0.316269,-0.604631 -0.744161,-0.906947 -1.283678,-0.906947 H 17.946072 c -0.530215,0 -0.958107,0.302316 -1.283678,0.906947 -0.316269,0.604631 -0.548819,1.599947 -0.697652,2.985948 -0.13953,1.376699 -0.209295,3.232451 -0.209295,5.567258 0,2.325505 0.06977,4.181257 0.209295,5.567258 0.148833,1.376699 0.381383,2.367363 0.697652,2.971994 0.325571,0.613933 0.753463,0.9209 1.283678,0.9209 z m 5.125942,-19.470472 8.338729,-6.39844 0.669746,0.892993 -7.152723,5.505447 z m 6.82303,0 4.05515,-3.175291 0.669746,0.892994 -2.869143,2.282297 z m 3.971432,-2.031143 c -0.04651,-0.269759 -0.15348,-0.562772 -0.320919,-0.879041 -0.167437,-0.325571 -0.451148,-0.767416 -0.851135,-1.325537 -0.288363,-0.409289 -0.548819,-0.706953 -0.78137,-0.892994 -0.23255,-0.18604 -0.544167,-0.367429 -0.934852,-0.544168 l 0.948806,-2.051095 c 0.102322,-0.232551 0.246503,-0.409289 0.432543,-0.530215 0.186041,-0.120926 0.381383,-0.181389 0.586027,-0.181389 0.399987,0 0.846484,0.190691 1.339491,0.572074 0.502309,0.372081 0.96741,0.846483 1.395303,1.423208 0.297665,0.399987 0.562772,0.869739 0.795322,1.409256 0.232551,0.530215 0.348826,0.972061 0.348826,1.325538 0,0.251155 -0.06511,0.479054 -0.195342,0.683698 -0.130229,0.204645 -0.330222,0.344175 -0.59998,0.418591 z m 0.711605,-1.353444 0.73951,-0.167436 c 0.130229,-0.02791 0.213947,-0.07442 0.251155,-0.13953 0.04651,-0.07442 0.06977,-0.158134 0.06977,-0.251155 0,-0.204644 -0.09767,-0.502308 -0.293014,-0.892993 -0.18604,-0.390685 -0.37208,-0.711605 -0.558121,-0.962759 -0.13953,-0.186041 -0.320919,-0.386034 -0.544168,-0.59998 -0.213947,-0.223249 -0.423242,-0.41394 -0.627886,-0.572075 -0.204645,-0.158134 -0.362779,-0.237201 -0.474403,-0.237201 -0.06511,0 -0.130228,0.0186 -0.195343,0.05581 -0.05581,0.03721 -0.106974,0.106972 -0.153483,0.209295 l -0.376732,0.795323 c 0.213947,0.148832 0.41394,0.32557 0.599981,0.530215 0.195342,0.195343 0.395335,0.441846 0.59998,0.739511 0.213946,0.288362 0.395335,0.55812 0.544168,0.809275 0.158134,0.241853 0.297664,0.469752 0.418591,0.683698 z m -0.530215,2.7627 c 0,-0.213947 0.102322,-0.390685 0.306966,-0.530215 0.204645,-0.148833 0.451148,-0.223249 0.739511,-0.223249 0.288363,0 0.530215,0.07442 0.725557,0.223249 0.195343,0.13953 0.293014,0.316268 0.293014,0.530215 0,0.102322 -0.106973,0.181389 -0.32092,0.237201 -0.213947,0.04651 -0.451148,0.06977 -0.711604,0.06977 -0.260457,0 -0.497658,-0.02326 -0.711605,-0.06977 -0.213946,-0.05581 -0.320919,-0.13488 -0.320919,-0.237201 z m 2.595263,0 c 0,-0.213947 0.102322,-0.390685 0.306966,-0.530215 0.204645,-0.148833 0.451148,-0.223249 0.739511,-0.223249 0.288363,0 0.530215,0.07442 0.725557,0.223249 0.204645,0.13953 0.306967,0.316268 0.306967,0.530215 0,0.102322 -0.106973,0.181389 -0.32092,0.237201 -0.213946,0.04651 -0.451147,0.06977 -0.711604,0.06977 -0.260457,0 -0.502309,-0.02326 -0.725558,-0.06977 -0.213946,-0.05581 -0.320919,-0.13488 -0.320919,-0.237201 z"
       id="text7"
       style="font-size:28.5758px;line-height:0.8;font-family:'Chakra Petch';-inkscape-font-specification:'Chakra Petch';display:none;fill:#ffffff;fill-opacity:1;fill-rule:nonzero;stroke:none;stroke-width:0;stroke-linecap:round;stroke-linejoin:round;stroke-miterlimit:0;stroke-dasharray:none;stroke-opacity:1;paint-order:markers stroke fill"
       inkscape:label="Video"
       aria-label="📹"
       sodipodi:nodetypes="sccsccssccsccssscccscccsccsccsccsccsscssscssssssccccssssssssccccsssscsscssssccscsssccsccscccccccccccccsccsscccsscccccscccssccccccscscscscscsscscscscs" />
    <text
       xml:space="preserve"
       style="font-size:38.879px;line-height:0.8;font-family:'Chakra Petch';-inkscape-font-specification:'Chakra Petch';display:inline;fill:#ffffff;fill-opacity:1;fill-rule:evenodd;stroke-width:6.89305;stroke-linecap:round;stroke-linejoin:round;stroke-miterlimit:0;paint-order:markers stroke fill"
       x="4.9312086"
       y="8.6911297"
       id="text8"
       inkscape:label="Music"><tspan
         sodipodi:role="line"
         id="tspan8"
         style="font-size:38.879px;fill:#ffffff;fill-opacity:1;stroke-width:6.89305"
         x="4.9312086"
         y="8.6911297" /><tspan
         sodipodi:role="line"
         style="font-size:38.879px;fill:#ffffff;fill-opacity:1;stroke-width:6.89305"
         x="4.9312086"
         y="39.794331"
         id="tspan10">🖼</tspan><tspan
         sodipodi:role="line"
         style="font-size:38.879px;fill:#ffffff;fill-opacity:1;stroke-width:6.89305"
         x="4.9312086"
         y="76.102783"
         id="tspan11" /></text>
  </g>
</svg>
