<?xml version="1.0" encoding="UTF-8" standalone="no"?>
<svg
   height="48"
   viewBox="0 -960 960 960"
   width="48"
   fill="#808080"
   version="1.1"
   id="svg1"
   sodipodi:docname="hd.svg"
   inkscape:export-filename="/extra_storage/programming/gozen/assets/codecs.svg"
   inkscape:export-xdpi="96"
   inkscape:export-ydpi="96"
   xmlns:inkscape="http://www.inkscape.org/namespaces/inkscape"
   xmlns:sodipodi="http://sodipodi.sourceforge.net/DTD/sodipodi-0.dtd"
   xmlns="http://www.w3.org/2000/svg"
   xmlns:svg="http://www.w3.org/2000/svg">
  <defs
     id="defs1" />
  <sodipodi:namedview
     id="namedview1"
     pagecolor="#ffffff"
     bordercolor="#000000"
     borderopacity="0.25"
     inkscape:showpageshadow="2"
     inkscape:pageopacity="0.0"
     inkscape:pagecheckerboard="0"
     inkscape:deskcolor="#d1d1d1"
     inkscape:zoom="15"
     inkscape:cx="22.6"
     inkscape:cy="22.033333"
     inkscape:window-width="1920"
     inkscape:window-height="1059"
     inkscape:window-x="0"
     inkscape:window-y="21"
     inkscape:window-maximized="1"
     inkscape:current-layer="svg1">
    <inkscape:page
       x="0"
       y="0"
       width="960"
       height="960"
       id="page2"
       margin="0"
       bleed="0" />
  </sodipodi:namedview>
  <path
     d="m 149,-135 c -26.03333,0 -48.21,-9.16 -66.53,-27.48 C 64.156667,-180.79333 55,-202.96667 55,-229 v -502 c 0,-26.30667 9.156667,-48.71667 27.47,-67.23 C 100.79,-816.74333 122.96667,-826 149,-826 h 662 c 26.30667,0 48.71667,9.25667 67.23,27.77 18.51333,18.51333 27.77,40.92333 27.77,67.23 v 502 c 0,26.03333 -9.25667,48.20667 -27.77,66.52 C 859.71667,-144.16 837.30667,-135 811,-135 Z"
     id="path1"
     sodipodi:nodetypes="sssscssssscss" />
  <path
     style="font-weight:bold;font-size:346.667px;font-family:Righteous;-inkscape-font-specification:'Righteous Bold';fill:#ffffff;stroke-width:20"
     d="m 373.95172,-455.62497 v -48.58077 q 0,-9.98699 -3.89323,-18.78908 -3.72397,-8.97137 -10.32553,-15.57294 -6.60157,-6.60156 -15.57294,-10.32553 -8.80209,-3.89323 -18.78908,-3.89323 -9.98698,0 -18.95835,3.89323 -8.80209,3.72397 -15.40366,10.32553 -6.60157,6.60157 -10.4948,15.57294 -3.72396,8.80209 -3.72396,18.78908 v 48.58077 z m 48.58077,96.99228 h -48.58077 v -48.58078 h -97.16155 v 48.58078 h -48.4115 v -145.57305 q 0,-20.14325 7.61719,-37.74744 7.61719,-17.77345 20.65106,-30.97659 13.20314,-13.20313 30.80732,-20.82033 17.77346,-7.61719 37.9167,-7.61719 20.14325,0 37.74744,7.61719 17.77345,7.6172 30.97659,20.82033 13.20313,13.20314 20.82033,30.97659 7.61719,17.60419 7.61719,37.74744 z m 222.42209,-242.7346 -79.72664,242.7346 h -48.58077 l -79.3881,-242.7346 h 55.18235 l 48.4115,161.99234 48.58078,-161.99234 z m 86.66675,242.7346 h -48.58077 v -194.15383 h -24.20575 v -48.58077 h 72.78652 z"
     id="text1"
     aria-label="AV1" />
</svg>
