<?xml version="1.0" encoding="UTF-8" standalone="no"?>
<svg
   height="48"
   viewBox="0 -960 960 960"
   width="48"
   fill="#808080"
   version="1.1"
   id="svg1"
   sodipodi:docname="custom.svg"
   inkscape:export-filename="/extra_storage/programming/gozen/assets/codecs.svg"
   inkscape:export-xdpi="96"
   inkscape:export-ydpi="96"
   inkscape:version="1.4.3 (0d15f75042, 2025-12-25)"
   xmlns:inkscape="http://www.inkscape.org/namespaces/inkscape"
   xmlns:sodipodi="http://sodipodi.sourceforge.net/DTD/sodipodi-0.dtd"
   xmlns="http://www.w3.org/2000/svg"
   xmlns:svg="http://www.w3.org/2000/svg">
  <defs
     id="defs1" />
  <sodipodi:namedview
     id="namedview1"
     pagecolor="#ffffff"
     bordercolor="#000000"
     borderopacity="0.25"
     inkscape:showpageshadow="2"
     inkscape:pageopacity="0.0"
     inkscape:pagecheckerboard="0"
     inkscape:deskcolor="#d1d1d1"
     inkscape:zoom="15"
     inkscape:cx="22.6"
     inkscape:cy="22"
     inkscape:window-width="1920"
     inkscape:window-height="1080"
     inkscape:window-x="0"
     inkscape:window-y="0"
     inkscape:window-maximized="1"
     inkscape:current-layer="svg1"
     showguides="true">
    <inkscape:page
       x="0"
       y="0"
       width="960"
       height="960"
       id="page2"
       margin="0"
       bleed="0" />
    <sodipodi:guide
       position="211.38802,239.34074"
       orientation="0,-1"
       id="guide2"
       inkscape:locked="false" />
  </sodipodi:namedview>
  <path
     d="m 149,-135 c -26.03333,0 -48.21,-9.16 -66.53,-27.48 C 64.156667,-180.79333 55,-202.96667 55,-229 v -502 c 0,-26.30667 9.156667,-48.71667 27.47,-67.23 C 100.79,-816.74333 122.96667,-826 149,-826 h 662 c 26.30667,0 48.71667,9.25667 67.23,27.77 18.51333,18.51333 27.77,40.92333 27.77,67.23 v 502 c 0,26.03333 -9.25667,48.20667 -27.77,66.52 C 859.71667,-144.16 837.30667,-135 811,-135 Z"
     id="path1"
     sodipodi:nodetypes="sssscssssscss" />
  <path
     sodipodi:type="star"
     style="fill:#ffffff;stroke-width:20"
     id="path2"
     inkscape:flatsided="false"
     sodipodi:sides="5"
     sodipodi:cx="156"
     sodipodi:cy="-561.33331"
     sodipodi:r1="294.73907"
     sodipodi:r2="147.36954"
     sodipodi:arg1="-0.26179939"
     sodipodi:arg2="0.36651914"
     inkscape:rounded="0"
     inkscape:randomized="0"
     d="m 440.69608,-637.6174 -147.11476,129.09661 22.94509,194.37646 -168.23914,-100.02141 -177.772579,81.88771 43.137267,-190.91324 -132.814588,-143.76708 194.899427,-17.96946 95.688653,-170.74065 77.3172,179.80751 z"
     inkscape:transform-center-x="-4.7667263"
     inkscape:transform-center-y="-23.573077"
     transform="translate(319.23327,104.90639)" />
</svg>
