<?xml version="1.0" encoding="UTF-8" standalone="no"?>
<svg
   height="48"
   viewBox="0 -960 960 960"
   width="48"
   fill="#808080"
   version="1.1"
   id="svg1"
   sodipodi:docname="hd.svg"
   inkscape:export-filename="/extra_storage/programming/gozen/src/assets/profiles/hevc.svg"
   inkscape:export-xdpi="96"
   inkscape:export-ydpi="96"
   inkscape:version="1.4.2 (ebf0e940d0, 2025-05-08)"
   xmlns:inkscape="http://www.inkscape.org/namespaces/inkscape"
   xmlns:sodipodi="http://sodipodi.sourceforge.net/DTD/sodipodi-0.dtd"
   xmlns="http://www.w3.org/2000/svg"
   xmlns:svg="http://www.w3.org/2000/svg">
  <defs
     id="defs1" />
  <sodipodi:namedview
     id="namedview1"
     pagecolor="#ffffff"
     bordercolor="#000000"
     borderopacity="0.25"
     inkscape:showpageshadow="2"
     inkscape:pageopacity="0.0"
     inkscape:pagecheckerboard="0"
     inkscape:deskcolor="#d1d1d1"
     inkscape:zoom="15"
     inkscape:cx="22.6"
     inkscape:cy="22.033333"
     inkscape:window-width="1920"
     inkscape:window-height="1059"
     inkscape:window-x="0"
     inkscape:window-y="21"
     inkscape:window-maximized="1"
     inkscape:current-layer="svg1">
    <inkscape:page
       x="0"
       y="0"
       width="960"
       height="960"
       id="page2"
       margin="0"
       bleed="0" />
  </sodipodi:namedview>
  <path
     d="m 149,-135 c -26.03333,0 -48.21,-9.16 -66.53,-27.48 C 64.156667,-180.79333 55,-202.96667 55,-229 v -502 c 0,-26.30667 9.156667,-48.71667 27.47,-67.23 C 100.79,-816.74333 122.96667,-826 149,-826 h 662 c 26.30667,0 48.71667,9.25667 67.23,27.77 18.51333,18.51333 27.77,40.92333 27.77,67.23 v 502 c 0,26.03333 -9.25667,48.20667 -27.77,66.52 C 859.71667,-144.16 837.30667,-135 811,-135 Z"
     id="path1"
     sodipodi:nodetypes="sssscssssscss" />
  <path
     style="font-weight:bold;font-size:320px;font-family:Righteous;-inkscape-font-specification:'Righteous Bold';fill:#ffffff;stroke-width:20"
     d="M 138.125,-368.82812 H 93.28125 v -224.0625 H 138.125 v 89.6875 h 89.53125 v -89.6875 H 272.5 v 224.0625 h -44.84375 v -89.53125 H 138.125 Z m 329.53125,0 H 314.0625 v -224.0625 h 153.59375 v 44.84375 h -108.75 v 44.84375 H 432.5 v 44.84375 h -73.59375 v 44.6875 h 108.75 z m 202.65625,-224.0625 -73.59375,224.0625 H 551.875 l -73.28125,-224.0625 h 50.9375 l 44.6875,149.53125 44.84375,-149.53125 z m 196.40625,201.09375 q -15.625,13.4375 -35,20.625 -19.375,7.1875 -40.15625,7.1875 -15.9375,0 -30.78125,-4.21875 -14.6875,-4.0625 -27.65625,-11.5625 -12.8125,-7.65625 -23.4375,-18.28125 -10.625,-10.625 -18.28125,-23.4375 -7.5,-12.96875 -11.71875,-27.65625 -4.0625,-14.84375 -4.0625,-30.78125 0,-15.9375 4.0625,-30.78125 4.21875,-14.84375 11.71875,-27.65625 7.65625,-12.96875 18.28125,-23.59375 10.625,-10.625 23.4375,-18.125 12.96875,-7.65625 27.65625,-11.71875 14.84375,-4.21875 30.78125,-4.21875 20.78125,0 40.15625,7.1875 19.375,7.03125 35,20.625 l -23.75,39.0625 q -9.84375,-10.625 -23.28125,-16.25 -13.4375,-5.78125 -28.125,-5.78125 -14.84375,0 -27.8125,5.625 -12.96875,5.625 -22.65625,15.3125 -9.6875,9.53125 -15.3125,22.65625 -5.625,12.96875 -5.625,27.65625 0,14.6875 5.625,27.65625 5.625,12.8125 15.3125,22.5 9.6875,9.6875 22.65625,15.3125 12.96875,5.625 27.8125,5.625 14.6875,0 28.125,-5.625 13.4375,-5.78125 23.28125,-16.40625 z"
     id="text1"
     aria-label="HEVC" />
</svg>
