<?xml version="1.0" encoding="UTF-8" standalone="no"?>
<svg
   height="48"
   viewBox="0 -960 960 960"
   width="48"
   fill="#808080"
   version="1.1"
   id="svg1"
   sodipodi:docname="vp8.svg"
   inkscape:export-filename="/extra_storage/programming/gozen/assets/codecs.svg"
   inkscape:export-xdpi="96"
   inkscape:export-ydpi="96"
   inkscape:version="1.4.2 (ebf0e940d0, 2025-05-08)"
   xmlns:inkscape="http://www.inkscape.org/namespaces/inkscape"
   xmlns:sodipodi="http://sodipodi.sourceforge.net/DTD/sodipodi-0.dtd"
   xmlns="http://www.w3.org/2000/svg"
   xmlns:svg="http://www.w3.org/2000/svg">
  <defs
     id="defs1" />
  <sodipodi:namedview
     id="namedview1"
     pagecolor="#ffffff"
     bordercolor="#000000"
     borderopacity="0.25"
     inkscape:showpageshadow="2"
     inkscape:pageopacity="0.0"
     inkscape:pagecheckerboard="0"
     inkscape:deskcolor="#d1d1d1"
     inkscape:zoom="15"
     inkscape:cx="22.533333"
     inkscape:cy="22"
     inkscape:window-width="1920"
     inkscape:window-height="1080"
     inkscape:window-x="0"
     inkscape:window-y="0"
     inkscape:window-maximized="1"
     inkscape:current-layer="svg1">
    <inkscape:page
       x="0"
       y="0"
       width="960"
       height="960"
       id="page2"
       margin="0"
       bleed="0" />
  </sodipodi:namedview>
  <path
     d="m 149,-135 c -26.03333,0 -48.21,-9.16 -66.53,-27.48 C 64.156667,-180.79333 55,-202.96667 55,-229 v -502 c 0,-26.30667 9.156667,-48.71667 27.47,-67.23 C 100.79,-816.74333 122.96667,-826 149,-826 h 662 c 26.30667,0 48.71667,9.25667 67.23,27.77 18.51333,18.51333 27.77,40.92333 27.77,67.23 v 502 c 0,26.03333 -9.25667,48.20667 -27.77,66.52 C 859.71667,-144.16 837.30667,-135 811,-135 Z"
     id="path1"
     sodipodi:nodetypes="sssscssssscss" />
  <path
     style="font-weight:bold;font-size:346.667px;font-family:Righteous;-inkscape-font-specification:'Righteous Bold';fill:#ffffff;stroke-width:20"
     d="m 372.0051,-597.89723 -79.72663,242.7346 h -48.58078 l -79.38809,-242.7346 h 55.18234 l 48.4115,161.99234 48.58078,-161.99234 z m 71.77091,48.58077 v 97.16155 h 48.58077 q 9.98699,0 18.78908,-3.72396 8.80209,-3.89323 15.40366,-10.4948 6.60157,-6.60157 10.32553,-15.40366 3.89324,-8.97136 3.89324,-18.95835 0,-9.98699 -3.89324,-18.78908 -3.72396,-8.97136 -10.32553,-15.57293 -6.60157,-6.60157 -15.40366,-10.32553 -8.80209,-3.89324 -18.78908,-3.89324 z m 0,194.15383 h -48.58078 v -242.7346 h 97.16155 q 13.37241,0 25.72919,3.55469 12.35678,3.38542 23.02086,9.81772 10.83334,6.26302 19.63543,15.23439 8.97136,8.80209 15.23439,19.63543 6.4323,10.83335 9.81772,23.19013 3.55469,12.35678 3.55469,25.72919 0,19.97398 -7.61719,37.74743 -7.6172,17.60418 -20.82034,30.80732 -13.20313,13.20314 -30.97659,20.82033 -17.60418,7.6172 -37.57816,7.6172 h -48.58077 z m 353.6071,-69.40111 q 0,16.41929 -7.44792,30.29951 -7.44793,13.88022 -20.48179,24.03648 -12.8646,9.98699 -30.13024,15.57293 -17.26564,5.75522 -36.90108,5.75522 -19.63543,0 -36.90107,-5.75522 -17.26565,-5.58594 -30.29951,-15.57293 -12.8646,-10.15626 -20.31252,-24.03648 -7.44792,-13.88022 -7.44792,-30.29951 0,-9.47917 2.53906,-18.45053 2.53907,-9.14064 7.27865,-17.09637 4.90886,-7.95574 11.6797,-14.55731 6.77084,-6.77084 15.23439,-11.51043 -5.2474,-4.57031 -9.47917,-10.4948 -4.06251,-5.92448 -7.10939,-12.52605 -2.8776,-6.60157 -4.40104,-13.54168 -1.52344,-7.10938 -1.52344,-14.04949 0,-14.21877 6.26303,-26.57555 6.43229,-12.52605 17.43491,-21.83596 11.00261,-9.47917 25.72919,-14.89584 14.72658,-5.41668 31.31513,-5.41668 16.75783,0 31.48441,5.41668 14.72657,5.41667 25.72919,14.89584 11.17188,9.30991 17.43491,21.83596 6.4323,12.35678 6.4323,26.57555 0,6.94011 -1.69271,14.04949 -1.52344,6.94011 -4.40105,13.71095 -2.8776,6.60157 -7.10938,12.52605 -4.0625,5.92449 -9.3099,10.66408 8.29427,4.73958 15.06511,11.34115 6.77084,6.60157 11.51043,14.55731 4.73959,7.95573 7.27865,16.9271 2.53907,8.97136 2.53907,18.45053 z M 735.93774,-531.543 q 0,-5.92449 -2.70834,-11.00262 -2.53906,-5.2474 -7.10938,-9.14063 -4.40104,-3.89323 -10.4948,-6.09376 -6.09376,-2.20052 -12.8646,-2.20052 -6.94011,0 -13.03386,2.20052 -6.09376,2.20053 -10.66407,6.09376 -4.40105,3.89323 -7.10939,9.14063 -2.53906,5.07813 -2.53906,11.00262 0,5.92448 2.53906,11.00261 2.70834,5.07813 7.10939,8.80209 4.57031,3.72397 10.66407,5.92449 6.09375,2.20052 13.03386,2.20052 6.77084,0 12.8646,-2.20052 6.09376,-2.20052 10.4948,-5.92449 4.57032,-3.72396 7.10938,-8.80209 2.70834,-5.07813 2.70834,-11.00261 z m 13.20314,105.6251 q 0,-8.12501 -3.72397,-15.06512 -3.55469,-7.10938 -9.98698,-12.35678 -6.26303,-5.2474 -14.89585,-8.29428 -8.46355,-3.04688 -18.112,-3.04688 -9.64844,0 -18.11199,3.04688 -8.46355,3.04688 -14.89585,8.29428 -6.26303,5.2474 -9.98699,12.35678 -3.55469,6.94011 -3.55469,15.06512 0,8.125 3.55469,14.89584 3.72396,6.77084 9.98699,11.6797 6.4323,4.90886 14.89585,7.78647 8.46355,2.70833 18.11199,2.70833 9.64845,0 18.112,-2.70833 8.63282,-2.87761 14.89585,-7.78647 6.43229,-4.90886 9.98698,-11.6797 3.72397,-6.77084 3.72397,-14.89584 z"
     id="text1"
     aria-label="VP8" />
</svg>
