<?xml version="1.0" encoding="UTF-8" standalone="no"?>
<svg
   height="48"
   viewBox="0 -960 960 960"
   width="48"
   fill="#808080"
   version="1.1"
   id="svg1"
   sodipodi:docname="hd.svg"
   inkscape:export-filename="/extra_storage/programming/gozen/assets/codecs.svg"
   inkscape:export-xdpi="96"
   inkscape:export-ydpi="96"
   xmlns:inkscape="http://www.inkscape.org/namespaces/inkscape"
   xmlns:sodipodi="http://sodipodi.sourceforge.net/DTD/sodipodi-0.dtd"
   xmlns="http://www.w3.org/2000/svg"
   xmlns:svg="http://www.w3.org/2000/svg">
  <defs
     id="defs1" />
  <sodipodi:namedview
     id="namedview1"
     pagecolor="#ffffff"
     bordercolor="#000000"
     borderopacity="0.25"
     inkscape:showpageshadow="2"
     inkscape:pageopacity="0.0"
     inkscape:pagecheckerboard="0"
     inkscape:deskcolor="#d1d1d1"
     inkscape:zoom="15"
     inkscape:cx="22.6"
     inkscape:cy="22.033333"
     inkscape:window-width="1920"
     inkscape:window-height="1059"
     inkscape:window-x="0"
     inkscape:window-y="21"
     inkscape:window-maximized="1"
     inkscape:current-layer="svg1">
    <inkscape:page
       x="0"
       y="0"
       width="960"
       height="960"
       id="page2"
       margin="0"
       bleed="0" />
  </sodipodi:namedview>
  <path
     d="m 149,-135 c -26.03333,0 -48.21,-9.16 -66.53,-27.48 C 64.156667,-180.79333 55,-202.96667 55,-229 v -502 c 0,-26.30667 9.156667,-48.71667 27.47,-67.23 C 100.79,-816.74333 122.96667,-826 149,-826 h 662 c 26.30667,0 48.71667,9.25667 67.23,27.77 18.51333,18.51333 27.77,40.92333 27.77,67.23 v 502 c 0,26.03333 -9.25667,48.20667 -27.77,66.52 C 859.71667,-144.16 837.30667,-135 811,-135 Z"
     id="path1"
     sodipodi:nodetypes="sssscssssscss" />
  <path
     style="font-weight:bold;font-size:346.667px;font-family:Righteous;-inkscape-font-specification:'Righteous Bold';fill:#ffffff;stroke-width:20"
     d="m 372.0051,-597.89723 -79.72663,242.7346 h -48.58078 l -79.38809,-242.7346 h 55.18234 l 48.4115,161.99234 48.58078,-161.99234 z m 71.77091,48.58077 v 97.16155 h 48.58077 q 9.98699,0 18.78908,-3.72396 8.80209,-3.89323 15.40366,-10.4948 6.60157,-6.60157 10.32553,-15.40366 3.89324,-8.97136 3.89324,-18.95835 0,-9.98699 -3.89324,-18.78908 -3.72396,-8.97136 -10.32553,-15.57293 -6.60157,-6.60157 -15.40366,-10.32553 -8.80209,-3.89324 -18.78908,-3.89324 z m 0,194.15383 h -48.58078 v -242.7346 h 97.16155 q 13.37241,0 25.72919,3.55469 12.35678,3.38542 23.02086,9.81772 10.83334,6.26302 19.63543,15.23439 8.97136,8.80209 15.23439,19.63543 6.4323,10.83335 9.81772,23.19013 3.55469,12.35678 3.55469,25.72919 0,19.97398 -7.61719,37.74743 -7.6172,17.60418 -20.82034,30.80732 -13.20313,13.20314 -30.97659,20.82033 -17.60418,7.6172 -37.57816,7.6172 H 443.77601 Z M 795.6904,-508.69142 q 0,23.3594 -4.73959,45.70317 -4.57032,22.1745 -13.37241,41.97921 -8.80209,19.8047 -21.49741,36.56253 -12.69533,16.75783 -28.77607,29.28388 h -65.50788 q 10.32553,-6.60157 19.97398,-14.72657 9.64845,-8.12501 18.28127,-17.43492 8.80209,-9.3099 16.25001,-19.63543 7.44793,-10.32553 13.20314,-21.32815 -7.44792,4.90886 -15.91147,8.46355 -8.46355,3.38542 -17.43491,3.38542 -20.65107,0 -37.07035,-6.77084 -16.41929,-6.94011 -28.09899,-19.12762 -11.51042,-12.35678 -17.77345,-29.28388 -6.09376,-16.9271 -6.09376,-37.07035 0,-19.63543 6.94011,-37.07035 7.10939,-17.60418 19.46617,-30.63805 12.35678,-13.20313 29.28388,-20.82033 16.9271,-7.61719 36.73181,-7.61719 19.97397,0 37.40888,7.61719 17.60419,7.6172 30.63805,20.82033 13.03387,13.03387 20.48179,30.63805 7.6172,17.43492 7.6172,37.07035 z m -51.9662,0 q 0,-9.3099 -3.21614,-17.94272 -3.21615,-8.63282 -9.14064,-15.23439 -5.75521,-6.60157 -13.88022,-10.4948 -8.12501,-3.89324 -17.94272,-3.89324 -9.98699,0 -18.112,3.89324 -7.95574,3.72396 -13.71095,10.15626 -5.75521,6.43229 -8.80209,15.06511 -3.04688,8.63282 -3.04688,18.45054 0,9.64845 3.04688,18.28127 3.04688,8.46355 8.80209,14.89585 5.75521,6.43229 13.71095,10.15626 8.12501,3.72396 18.112,3.72396 9.98698,0 18.11199,-3.72396 8.29428,-3.72397 14.04949,-10.15626 5.75522,-6.4323 8.8021,-14.89585 3.21614,-8.63282 3.21614,-18.28127 z"
     id="text1"
     aria-label="VP9" />
</svg>
