<?xml version="1.0" encoding="UTF-8" standalone="no"?>
<svg
   height="48"
   viewBox="0 -960 960 960"
   width="48"
   fill="#808080"
   version="1.1"
   id="svg1"
   sodipodi:docname="hd.svg"
   xmlns:inkscape="http://www.inkscape.org/namespaces/inkscape"
   xmlns:sodipodi="http://sodipodi.sourceforge.net/DTD/sodipodi-0.dtd"
   xmlns="http://www.w3.org/2000/svg"
   xmlns:svg="http://www.w3.org/2000/svg">
  <defs
     id="defs1" />
  <sodipodi:namedview
     id="namedview1"
     pagecolor="#ffffff"
     bordercolor="#000000"
     borderopacity="0.25"
     inkscape:showpageshadow="2"
     inkscape:pageopacity="0.0"
     inkscape:pagecheckerboard="0"
     inkscape:deskcolor="#d1d1d1">
    <inkscape:page
       x="0"
       y="0"
       width="960"
       height="960"
       id="page2"
       margin="0"
       bleed="0" />
  </sodipodi:namedview>
  <path
     d="m 149,-135 c -26.03333,0 -48.21,-9.16 -66.53,-27.48 C 64.156667,-180.79333 55,-202.96667 55,-229 v -502 c 0,-26.30667 9.156667,-48.71667 27.47,-67.23 C 100.79,-816.74333 122.96667,-826 149,-826 h 662 c 26.30667,0 48.71667,9.25667 67.23,27.77 18.51333,18.51333 27.77,40.92333 27.77,67.23 v 502 c 0,26.03333 -9.25667,48.20667 -27.77,66.52 C 859.71667,-144.16 837.30667,-135 811,-135 Z"
     id="path1"
     sodipodi:nodetypes="sssscssssscss" />
  <text
     xml:space="preserve"
     style="font-size:333.333px;text-align:start;writing-mode:lr-tb;direction:ltr;text-anchor:start;fill:#7137c8;stroke-width:20"
     x="176.66701"
     y="-358.83356"
     id="text1"><tspan
       sodipodi:role="line"
       id="tspan1"
       style="font-weight:bold;font-size:333.333px;fill:#ffffff;stroke-width:20"
       x="176.66701"
       y="-358.83356">VP9</tspan></text>
</svg>
