<?xml version="1.0" encoding="UTF-8" standalone="no"?>
<!-- Created with Inkscape (http://www.inkscape.org/) -->

<svg
   width="900"
   height="900"
   viewBox="0 0 238.125 238.125"
   version="1.1"
   id="svg1"
   xml:space="preserve"
   inkscape:version="1.4.2 (ebf0e940d0, 2025-05-08)"
   sodipodi:docname="icon.svg"
   inkscape:export-filename="logo.png"
   inkscape:export-xdpi="96"
   inkscape:export-ydpi="96"
   xmlns:inkscape="http://www.inkscape.org/namespaces/inkscape"
   xmlns:sodipodi="http://sodipodi.sourceforge.net/DTD/sodipodi-0.dtd"
   xmlns:xlink="http://www.w3.org/1999/xlink"
   xmlns="http://www.w3.org/2000/svg"
   xmlns:svg="http://www.w3.org/2000/svg"><sodipodi:namedview
     id="namedview1"
     pagecolor="#505050"
     bordercolor="#eeeeee"
     borderopacity="1"
     inkscape:showpageshadow="0"
     inkscape:pageopacity="0"
     inkscape:pagecheckerboard="0"
     inkscape:deskcolor="#505050"
     inkscape:document-units="mm"
     inkscape:zoom="0.37415825"
     inkscape:cx="-81.51631"
     inkscape:cy="649.45782"
     inkscape:window-width="1920"
     inkscape:window-height="1080"
     inkscape:window-x="0"
     inkscape:window-y="0"
     inkscape:window-maximized="1"
     inkscape:current-layer="layer1" /><defs
     id="defs1"><linearGradient
       id="linearGradient1390"
       inkscape:collect="always"><stop
         style="stop-color:#102c43;stop-opacity:1;"
         offset="0"
         id="stop1391" /><stop
         style="stop-color:#1c2c49;stop-opacity:1;"
         offset="0.22030322"
         id="stop1395" /><stop
         style="stop-color:#3f2170;stop-opacity:1;"
         offset="0.35827073"
         id="stop1396" /><stop
         style="stop-color:#94328a;stop-opacity:1;"
         offset="0.55468756"
         id="stop1393" /><stop
         style="stop-color:#c04c4c;stop-opacity:1;"
         offset="0.80517685"
         id="stop1394" /><stop
         style="stop-color:#dca65e;stop-opacity:1;"
         offset="1"
         id="stop1392" /></linearGradient><linearGradient
       id="linearGradient1388"
       inkscape:collect="always"><stop
         style="stop-color:#fc2059;stop-opacity:1;"
         offset="0"
         id="stop1388" /><stop
         style="stop-color:#fa444c;stop-opacity:1;"
         offset="0.62194771"
         id="stop1390" /><stop
         style="stop-color:#f79675;stop-opacity:0.98039216;"
         offset="1"
         id="stop1389" /></linearGradient><linearGradient
       id="swatch1342"
       inkscape:swatch="solid"><stop
         style="stop-color:#000000;stop-opacity:1;"
         offset="0"
         id="stop1342" /></linearGradient><linearGradient
       inkscape:collect="always"
       xlink:href="#linearGradient1388"
       id="linearGradient1389"
       x1="109.15796"
       y1="8.5657215"
       x2="110.93837"
       y2="96.910088"
       gradientUnits="userSpaceOnUse" /><linearGradient
       inkscape:collect="always"
       xlink:href="#linearGradient1390"
       id="linearGradient1392"
       x1="119.13278"
       y1="90.203384"
       x2="119.27927"
       y2="219.82658"
       gradientUnits="userSpaceOnUse" /><linearGradient
       inkscape:collect="always"
       xlink:href="#linearGradient1390"
       id="linearGradient1505"
       gradientUnits="userSpaceOnUse"
       x1="119.13278"
       y1="90.203384"
       x2="119.27927"
       y2="219.82658" /><linearGradient
       inkscape:collect="always"
       xlink:href="#linearGradient1390"
       id="linearGradient1506"
       gradientUnits="userSpaceOnUse"
       x1="119.13278"
       y1="90.203384"
       x2="119.27927"
       y2="219.82658" /><linearGradient
       inkscape:collect="always"
       xlink:href="#linearGradient1390"
       id="linearGradient1507"
       gradientUnits="userSpaceOnUse"
       x1="119.13278"
       y1="90.203384"
       x2="119.27927"
       y2="219.82658" /><linearGradient
       inkscape:collect="always"
       xlink:href="#linearGradient1390"
       id="linearGradient1508"
       gradientUnits="userSpaceOnUse"
       x1="119.13278"
       y1="90.203384"
       x2="119.27927"
       y2="219.82658" /><linearGradient
       inkscape:collect="always"
       xlink:href="#linearGradient1390"
       id="linearGradient1509"
       gradientUnits="userSpaceOnUse"
       x1="119.13278"
       y1="90.203384"
       x2="119.27927"
       y2="219.82658" /><linearGradient
       inkscape:collect="always"
       xlink:href="#linearGradient1390"
       id="linearGradient1510"
       gradientUnits="userSpaceOnUse"
       x1="119.13278"
       y1="90.203384"
       x2="119.27927"
       y2="219.82658" /><linearGradient
       inkscape:collect="always"
       xlink:href="#linearGradient1390"
       id="linearGradient1511"
       gradientUnits="userSpaceOnUse"
       x1="119.13278"
       y1="90.203384"
       x2="119.27927"
       y2="219.82658" /><linearGradient
       inkscape:collect="always"
       xlink:href="#linearGradient1390"
       id="linearGradient1512"
       gradientUnits="userSpaceOnUse"
       x1="119.13278"
       y1="90.203384"
       x2="119.27927"
       y2="219.82658" /><linearGradient
       inkscape:collect="always"
       xlink:href="#linearGradient1388"
       id="linearGradient1513"
       gradientUnits="userSpaceOnUse"
       x1="109.15796"
       y1="8.5657215"
       x2="110.93837"
       y2="96.910088" /><linearGradient
       inkscape:collect="always"
       xlink:href="#linearGradient1388"
       id="linearGradient1514"
       gradientUnits="userSpaceOnUse"
       x1="109.15796"
       y1="8.5657215"
       x2="110.93837"
       y2="96.910088" /><linearGradient
       inkscape:collect="always"
       xlink:href="#linearGradient1388"
       id="linearGradient1515"
       gradientUnits="userSpaceOnUse"
       x1="109.15796"
       y1="8.5657215"
       x2="110.93837"
       y2="96.910088" /><linearGradient
       inkscape:collect="always"
       xlink:href="#linearGradient1388"
       id="linearGradient1516"
       gradientUnits="userSpaceOnUse"
       x1="109.15796"
       y1="8.5657215"
       x2="110.93837"
       y2="96.910088" /><linearGradient
       inkscape:collect="always"
       xlink:href="#linearGradient1388"
       id="linearGradient1517"
       gradientUnits="userSpaceOnUse"
       x1="109.15796"
       y1="8.5657215"
       x2="110.93837"
       y2="96.910088" /></defs><g
     inkscape:label="Layer 1"
     inkscape:groupmode="layer"
     id="layer1"
     transform="translate(6.8941571,6.3524602)"><circle
       style="fill:#ff0000;stroke-width:0.276471"
       id="path2"
       cx="112.15585"
       cy="112.69753"
       r="119.05" /><circle
       style="fill:#333333;stroke-width:0.256765"
       id="circle2"
       cx="112.15585"
       cy="112.69753"
       r="110.56429" /><g
       inkscape:groupmode="layer"
       id="layer3"
       inkscape:label="Bottom"
       style="fill:url(#linearGradient1392)"><path
         style="fill:url(#linearGradient1505);fill-opacity:1;fill-rule:evenodd"
         d="m 165.29965,156.83623 c -0.10226,-0.10227 -3.78808,-0.21914 -8.19071,-0.25972 -4.40263,-0.0406 -8.00478,-0.21125 -8.00478,-0.37926 0,-0.60537 -2.36167,-1.26023 -5.92752,-1.64361 -1.99896,-0.21493 -4.0682,-0.61506 -4.5983,-0.88919 -0.53011,-0.27412 -1.59335,-0.61027 -2.36275,-0.74698 -0.76941,-0.13671 -2.45741,-0.70594 -3.75111,-1.26496 -1.2937,-0.55902 -2.58395,-1.0164 -2.86722,-1.0164 -0.28327,0 -0.71206,-0.2374 -0.95286,-0.52755 -0.2408,-0.29015 -1.09368,-0.71399 -1.89528,-0.94188 -0.8016,-0.22788 -1.77495,-0.68287 -2.16301,-1.01108 -0.38805,-0.32822 -1.18197,-0.75546 -1.76426,-0.94944 -1.05322,-0.35085 -3.07942,-1.56418 -4.76213,-2.85167 -0.48507,-0.37114 -1.21819,-0.78053 -1.62917,-0.90976 -0.41097,-0.12923 -1.03089,-0.54842 -1.37759,-0.93152 -0.3467,-0.3831 -0.81561,-0.69655 -1.04201,-0.69655 -1.27797,0 -3.16998,-2.06447 -3.06016,-3.3391 0.14738,-1.71063 -1.31155,-3.71645 -2.70314,-3.71645 -0.65072,0 -1.06811,-0.25188 -1.30497,-0.78749 -0.19153,-0.43312 -0.74511,-0.98348 -1.23018,-1.22303 -1.35704,-0.67016 -1.07228,-1.30367 0.70556,-1.56968 0.87312,-0.13064 2.35621,-0.58307 3.29575,-1.00541 1.70825,-0.76788 1.70825,-0.76788 2.49218,-0.0314 0.43116,0.40505 0.96567,0.73646 1.1878,0.73646 0.22212,0 0.84689,0.39711 1.38837,0.88247 1.95948,1.75638 3.55329,2.99809 3.84824,2.99809 0.31979,0 3.59565,1.49747 5.07377,2.31933 0.48507,0.26971 1.40154,0.73498 2.0366,1.03393 0.63506,0.29896 1.46013,0.84902 1.83348,1.22237 0.37334,0.37335 1.34531,0.85829 2.15992,1.07764 0.81462,0.21935 1.89455,0.68914 2.39986,1.04397 0.50531,0.35483 1.52562,0.74872 2.26734,0.87531 0.74173,0.12659 1.85298,0.53771 2.46945,0.9136 0.61646,0.37589 1.72377,0.68403 2.46068,0.68475 0.99699,9.8e-4 1.53862,0.23156 2.11667,0.90109 0.61869,0.71661 1.20771,0.94047 2.89349,1.09971 1.16417,0.10996 2.4902,0.43381 2.94674,0.71965 2.97887,1.86513 26.43799,1.92548 29.61717,0.0762 0.64169,-0.37326 1.7573,-0.67865 2.47915,-0.67865 1.53946,0 2.88055,-0.82108 2.88055,-1.76361 0,-0.53047 0.3038,-0.68725 1.49931,-0.77375 1.14696,-0.083 1.57944,-0.29108 1.84033,-0.88549 0.24236,-0.5522 0.70167,-0.80737 1.5875,-0.88194 0.89485,-0.0753 1.34471,-0.32885 1.59471,-0.89869 0.19153,-0.43656 0.59634,-0.79375 0.89958,-0.79375 0.8201,0 1.39801,-0.72916 1.39801,-1.76388 0,-1.16585 -0.59804,-1.76389 -1.76388,-1.76389 -1.06973,0 -1.76389,0.5831 -1.76389,1.48166 0,0.50807 -0.28868,0.635 -1.44414,0.635 -1.14745,0 -1.48204,0.14495 -1.62865,0.70556 -0.10147,0.38805 -0.44992,0.70555 -0.77432,0.70555 -0.3244,0 -1.20228,0.31225 -1.95084,0.69389 -0.74856,0.38164 -2.32994,0.79287 -3.51418,0.91384 -1.18423,0.12097 -2.9469,0.59062 -3.91704,1.04366 -2.45163,1.14488 -8.3227,1.4964 -17.10453,1.02412 -3.9154,-0.21057 -5.01812,-0.39452 -6.23106,-1.03945 -1.01238,-0.53829 -2.43788,-0.86391 -4.55356,-1.04014 -2.02757,-0.1689 -3.4543,-0.4849 -4.17589,-0.92491 -0.60284,-0.3676 -1.70822,-0.66896 -2.4564,-0.66969 -1.01245,-9.8e-4 -1.52963,-0.21653 -2.02229,-0.84284 -0.37641,-0.47853 -1.22844,-0.9478 -1.97526,-1.0879 -0.72233,-0.13551 -1.76917,-0.62995 -2.32631,-1.09876 -0.55715,-0.4688 -1.33926,-0.85237 -1.73804,-0.85237 -0.39877,0 -1.22003,-0.2994 -1.82501,-0.66533 -0.60499,-0.36594 -1.49082,-0.78419 -1.96852,-0.92946 -0.4777,-0.14527 -1.16391,-0.63962 -1.52491,-1.09856 -0.361,-0.45893 -0.87079,-0.83443 -1.13286,-0.83443 -0.26207,0 -0.92524,-0.37271 -1.4737,-0.82824 -1.06142,-0.88157 -2.10493,-1.48796 -4.78048,-2.77794 -1.83947,-0.88689 -1.96329,-1.33668 -0.47736,-1.73407 0.54178,-0.1449 1.24581,-0.49223 1.56451,-0.77185 0.3187,-0.27963 1.48419,-0.76713 2.58997,-1.08334 1.10579,-0.31622 2.09881,-0.71779 2.20671,-0.89239 0.46438,-0.75137 3.0685,-0.82454 4.03058,-0.11324 0.51594,0.38145 1.32584,0.81661 1.79979,0.96704 0.47394,0.15042 1.15708,0.64899 1.51808,1.10793 0.361,0.45894 1.01088,0.83443 1.44417,0.83443 0.43329,0 1.31446,0.38856 1.95816,0.86347 0.6437,0.47491 1.65315,0.96951 2.24322,1.09911 0.59007,0.1296 1.80081,0.62513 2.69054,1.10119 1.10169,0.58947 2.03326,0.82727 2.92057,0.74556 0.9925,-0.0914 1.3401,0.0223 1.45904,0.47709 0.16777,0.64157 2.22287,1.35284 3.91811,1.35606 0.56958,0.001 1.38767,0.33273 1.81798,0.73699 0.95424,0.89645 2.82874,1.36205 5.52869,1.37323 1.11775,0.005 3.57837,0.26211 5.46806,0.57217 3.49579,0.57361 6.72429,0.5156 11.69904,-0.21022 1.27604,-0.18617 3.25343,-0.43524 4.3942,-0.55349 1.52488,-0.15807 2.27223,-0.42847 2.82222,-1.02113 0.49855,-0.53722 1.35271,-0.88911 2.56061,-1.05491 1.27305,-0.17473 2.0336,-0.50304 2.55531,-1.10306 0.46125,-0.53048 1.12408,-0.85428 1.74878,-0.85428 0.55329,0 1.27909,-0.30178 1.61289,-0.67062 0.3338,-0.36884 1.1366,-0.76999 1.784,-0.89144 1.14251,-0.21434 5.83234,-4.36513 5.83234,-5.16199 0,-0.18233 0.19844,-0.33164 0.44097,-0.33182 1.19929,-8.5e-4 4.85069,-4.79242 4.85069,-6.36535 0,-0.76886 0.16675,-1.04267 0.635,-1.04267 0.97198,0 1.48118,-0.71902 1.48649,-2.09902 0.0113,-2.94631 2.25384,-4.41641 5.0816,-3.33129 0.79834,0.30635 0.80836,4.0192 0.0109,4.0192 -0.90953,0 -1.65499,2.43376 -1.83694,5.99722 -0.11577,2.26731 -0.34192,3.54646 -0.69912,3.95444 -0.2904,0.33167 -0.61095,1.339 -0.71233,2.2385 -0.12071,1.07091 -0.47163,1.92274 -1.01662,2.46772 -0.45775,0.45775 -0.83227,1.19872 -0.83227,1.6466 0,0.50338 -0.3007,0.9473 -0.78749,1.16256 -0.43311,0.19153 -0.97026,0.7186 -1.19365,1.17126 -0.53354,1.08113 -3.75439,4.46913 -4.53249,4.76771 -0.3349,0.12852 -0.68189,0.51276 -0.7711,0.85387 -0.0892,0.34111 -0.62975,0.88855 -1.20123,1.21653 -0.57147,0.32798 -1.03904,0.83226 -1.03904,1.12061 0,0.35118 -0.43677,0.56043 -1.32292,0.63377 -0.93961,0.0778 -1.41699,0.32364 -1.64762,0.84859 -0.17859,0.40651 -0.78468,0.91273 -1.34688,1.12493 -0.88416,0.33373 -1.00703,0.54354 -0.91001,1.55395 0.14653,1.52617 2.64142,1.95748 3.57911,0.61875 0.29397,-0.41971 1.06292,-0.86932 1.70877,-0.99914 0.72772,-0.14627 1.3067,-0.53395 1.52251,-1.01945 0.20899,-0.47015 0.66197,-0.78342 1.13283,-0.78342 0.82309,0 8.92588,-7.54646 8.92588,-8.31303 0,-0.21838 0.3175,-0.68439 0.70555,-1.03558 0.4572,-0.41376 0.70556,-1.08654 0.70556,-1.9113 0,-0.98155 0.18162,-1.35246 0.79375,-1.62102 0.66958,-0.29376 0.8103,-0.66555 0.89955,-2.37671 0.0715,-1.37081 0.25393,-2.02847 0.56268,-2.02847 1.24272,0 1.73804,-1.35628 1.90167,-5.20721 0.0885,-2.08374 0.31877,-3.98559 0.51161,-4.22634 0.19284,-0.24074 0.47441,-1.56544 0.62571,-2.94378 0.33044,-3.01028 0.43337,-3.13171 2.86753,-3.38294 2.88807,-0.29807 3.49548,5.0865 1.59877,14.17277 -0.28351,1.3582 -0.62244,3.73945 -0.75317,5.29167 -0.13073,1.55222 -0.62353,3.96014 -1.09512,5.35092 -0.47158,1.39079 -0.85743,2.88017 -0.85743,3.30975 0,0.42958 -0.31966,1.29828 -0.71036,1.93044 -0.3907,0.63217 -0.87437,2.03655 -1.07481,3.12085 -0.69376,3.7529 -1.52503,5.08579 -3.34168,5.35821 -0.87131,0.13066 -1.98004,0.54894 -2.46385,0.9295 -0.48381,0.38057 -1.81008,0.82345 -2.94728,0.98419 -1.13719,0.16075 -2.52542,0.52876 -3.08496,0.81781 -0.55953,0.28906 -2.28733,0.71581 -3.83956,0.94834 -1.55222,0.23254 -3.68984,0.72547 -4.75027,1.09542 -1.16068,0.40492 -2.91576,0.67879 -4.40972,0.68811 -2.56118,0.016 -4.73219,0.58226 -5.76822,1.50457 -0.48429,0.43113 -1.83995,0.52792 -7.33934,0.52399 -3.70993,-0.003 -7.36629,0.10009 -8.12525,0.22832 -0.75896,0.12822 -1.4636,0.14946 -1.56587,0.0472 z"
         id="path1242" /><path
         style="fill:url(#linearGradient1506);fill-opacity:1;fill-rule:evenodd"
         d="m 139.41242,171.97916 c 0.35642,-0.58208 0.98716,-1.45521 1.40166,-1.94028 0.66521,-0.77848 2.99842,-5.52195 2.99842,-6.09586 0,-0.77944 2.2366,-3.36981 3.04263,-3.52389 1.3953,-0.26673 3.66014,0.12359 3.66014,0.63079 0,1.62552 -6.8435,9.30947 -9.17222,10.29864 -0.67909,0.28846 -1.53711,0.78648 -1.90669,1.10671 -0.65926,0.57121 -0.65972,0.56221 -0.0239,-0.47611 z"
         id="path1243" /><path
         style="fill:url(#linearGradient1507);fill-opacity:1;fill-rule:evenodd"
         d="m 81.723747,169.7558 c -1.511702,-1.02663 -7.684804,-7.36525 -8.264321,-8.48591 -0.303173,-0.58628 -0.852005,-1.27663 -1.219625,-1.53412 -0.36762,-0.25749 -0.92096,-1.02119 -1.229644,-1.69711 -0.308685,-0.67592 -0.707168,-1.46707 -0.885518,-1.75811 -0.845367,-1.37951 -2.111944,-4.27861 -2.334123,-5.34263 -0.135951,-0.65107 -0.606109,-1.81876 -1.044797,-2.59487 -0.467369,-0.82685 -0.8906,-2.3393 -1.022198,-3.6529 -0.276286,-2.75788 -0.870207,-4.07312 -1.906008,-4.22085 -0.853375,-0.12172 -0.553511,-1.31366 0.484957,-1.92768 0.634008,-0.37488 1.546147,-3.5653 1.546147,-5.40802 0,-2.59029 1.085775,-3.05241 5.662691,-2.41011 2.014129,0.28265 4.421486,0.41317 5.349681,0.29004 1.434079,-0.19024 1.687627,-0.13484 1.687627,0.36874 0,0.85011 2.100727,1.61495 4.43566,1.61495 1.584785,0 2.193351,0.17205 2.995268,0.84682 1.850335,1.55696 9.98023,1.74024 11.968649,0.26983 1.171411,-0.86624 2.459057,-0.37119 4.665637,1.79377 0.34607,0.33954 0.95996,0.61736 1.36418,0.61736 1.21753,0 0.57164,0.83939 -1.11102,1.44386 -0.86032,0.30906 -2.19921,0.85086 -2.975321,1.204 -2.431299,1.10628 -13.395527,0.93223 -16.227776,-0.2576 -1.164166,-0.48907 -2.690184,-0.99193 -3.391151,-1.11747 -0.700966,-0.12554 -1.550865,-0.53366 -1.888663,-0.90692 -0.337799,-0.37326 -1.062999,-0.77724 -1.611556,-0.89772 -0.548557,-0.12048 -1.204535,-0.46867 -1.457728,-0.77375 -0.603098,-0.72669 -3.291565,-1.8694 -4.398149,-1.8694 -1.479894,0 -1.968677,1.82601 -1.832441,6.84571 0.120415,4.43678 0.356096,5.36774 2.622739,10.36002 0.464448,1.02294 0.84445,2.08186 0.84445,2.35315 0,0.68726 2.400594,5.34481 3.019612,5.85854 0.279491,0.23196 0.508166,0.61322 0.508166,0.84723 0,0.41518 0.931381,1.95587 3.497554,5.78567 1.449636,2.16346 3.22185,5.00019 3.106722,4.97284 -0.04284,-0.0102 -0.474704,-0.28799 -0.959701,-0.61736 z"
         id="path1244" /><path
         style="fill:url(#linearGradient1508);fill-opacity:1;fill-rule:evenodd"
         d="m 110.29861,195.77365 c -0.87312,-0.15536 -4.2608,-0.29424 -7.52817,-0.30862 -5.491992,-0.0242 -5.984913,-0.0794 -6.52639,-0.73149 -0.593718,-0.71498 -3.321995,-1.41132 -5.529557,-1.41132 -0.628857,0 -1.332674,-0.22809 -1.564038,-0.50687 -0.231364,-0.27878 -1.251216,-0.61064 -2.266338,-0.73747 -1.419065,-0.1773 -1.922992,-0.40554 -2.180173,-0.98746 -0.183972,-0.41627 -0.810745,-0.89769 -1.392829,-1.06983 -1.723613,-0.50973 -4.362498,-1.87903 -5.404218,-2.80422 -0.326152,-0.28967 -1.148628,-0.78391 -1.827725,-1.09832 -1.636495,-0.75766 -3.684589,-2.02535 -4.670581,-2.89092 -0.438611,-0.38504 -1.464631,-1.14503 -2.280044,-1.68887 -0.815413,-0.54384 -1.731885,-1.36931 -2.036604,-1.83437 -0.30472,-0.46506 -0.751683,-0.84556 -0.993252,-0.84556 -0.887557,0 -8.900502,-8.3479 -9.485767,-9.88229 -0.131924,-0.34587 -0.405893,-0.73146 -0.608819,-0.85687 -0.611412,-0.37788 -3.853132,-5.50985 -4.918614,-7.78667 -0.364482,-0.77886 -0.92251,-1.63174 -1.240061,-1.89528 -0.317552,-0.26354 -0.577366,-0.71415 -0.577366,-1.00134 0,-0.2872 -0.380144,-1.25995 -0.844763,-2.16167 -2.26953,-4.40464 -3.551238,-18.03735 -1.928582,-20.5131 0.317924,-0.48507 0.754181,-1.43757 0.96946,-2.11667 1.190652,-3.75591 6.562501,-6.45773 8.833657,-4.44298 0.669573,0.59398 2.993277,1.2633 4.395261,1.26601 0.997486,0.002 1.013854,0.0329 0.808798,1.52892 -0.744989,5.43529 -0.718402,9.08943 0.06763,9.29498 0.607736,0.15893 0.682039,0.30175 0.359299,0.69063 -0.706861,0.85171 -0.221612,9.14661 0.647313,11.06522 0.395432,0.87312 0.838979,1.98437 0.985661,2.46944 0.146682,0.48507 0.641848,1.33069 1.100368,1.87915 0.45852,0.54847 0.833673,1.16055 0.833673,1.36019 0,0.19964 0.396875,0.83464 0.881944,1.41111 0.485069,0.57647 0.881944,1.24947 0.881944,1.49555 0,0.24609 0.3175,0.73476 0.705556,1.08595 0.388055,0.35118 0.705555,0.86425 0.705555,1.14014 0,0.2759 0.508166,1.00536 1.129258,1.62102 0.621092,0.61567 2.212343,2.34404 3.536113,3.84082 1.32377,1.49679 2.93231,2.97078 3.574533,3.27554 0.642223,0.30475 1.710035,1.10817 2.372914,1.78536 0.66288,0.6772 2.078361,1.8114 3.145514,2.52045 5.938757,3.9459 8.251938,5.39583 8.608327,5.39583 0.218875,0 0.970348,0.30679 1.66994,0.68175 5.403717,2.89622 34.981183,2.94398 40.352443,0.0652 0.76646,-0.4108 1.56689,-0.74691 1.77874,-0.74691 0.21185,0 1.49896,-0.85451 2.86025,-1.89892 1.36128,-1.04441 2.7778,-1.99676 3.14782,-2.11633 0.37001,-0.11957 1.53311,-1.01131 2.58467,-1.98163 1.05155,-0.97033 1.97609,-1.76423 2.05451,-1.76423 0.27215,0 4.85454,-3.9797 5.13703,-4.46138 0.1562,-0.26636 0.63245,-0.85987 1.05833,-1.31891 1.33881,-1.44307 2.49655,-2.89094 3.77293,-4.71847 1.28845,-1.8448 2.05354,-2.1881 4.89715,-2.19736 1.42279,-0.005 1.46496,2.18534 0.0707,3.66951 -0.40396,0.42999 -0.73447,0.87125 -0.73447,0.98058 0,0.97651 -10.45667,11.22103 -11.45341,11.22103 -0.47572,0 -1.7459,0.99224 -4.00958,3.13221 -0.48821,0.46153 -1.45533,0.99324 -2.14914,1.18159 -0.69382,0.18834 -1.49961,0.54346 -1.79065,0.78916 -0.29104,0.2457 -0.97926,0.55384 -1.52937,0.68476 -0.55012,0.13092 -1.36207,0.62849 -1.80434,1.10572 -0.45234,0.48808 -1.20082,0.86767 -1.71086,0.86767 -1.38485,0 -2.76539,0.63978 -2.95636,1.37006 -0.14084,0.53857 -0.61939,0.68804 -2.67341,0.83501 -1.83683,0.13142 -2.62279,0.34438 -2.9568,0.80116 -0.6701,0.91642 -26.62687,0.62024 -28.062166,-0.3202 -0.496958,-0.32562 -1.757077,-0.6823 -2.800264,-0.79262 -1.043187,-0.11033 -2.310138,-0.48976 -2.815447,-0.84317 -0.505309,-0.35342 -1.610972,-0.82898 -2.457028,-1.0568 -0.846056,-0.22782 -1.905732,-0.70325 -2.354835,-1.05652 -0.449103,-0.35326 -1.43274,-0.7464 -2.18586,-0.87364 -0.75312,-0.12724 -1.646176,-0.53728 -1.984569,-0.9112 -0.373913,-0.41317 -1.078155,-0.67985 -1.795306,-0.67985 -0.937817,0 -1.180046,-0.14229 -1.180046,-0.69315 0,-0.38123 -0.357187,-0.88388 -0.79375,-1.117 -0.436562,-0.23313 -1.214629,-0.87371 -1.729038,-1.42353 -0.514408,-0.54981 -1.190874,-0.99966 -1.503257,-0.99966 -0.845671,0 -3.714203,-1.52684 -3.725377,-1.98291 -0.0053,-0.21748 -1.240001,-1.66893 -2.743716,-3.22544 -4.242082,-4.39104 -6.438193,-6.88625 -6.438193,-7.31507 0,-0.21575 -0.396875,-0.93021 -0.881945,-1.58769 -0.485069,-0.65747 -0.881944,-1.46989 -0.881944,-1.80536 0,-0.33547 -0.37454,-1.05869 -0.832311,-1.60715 -0.457771,-0.54847 -1.09479,-1.47346 -1.415598,-2.05554 -0.320808,-0.58209 -0.730459,-1.29646 -0.910336,-1.5875 -1.005343,-1.62665 -2.191768,-5.0103 -2.523754,-7.19767 -0.209,-1.37705 -0.694001,-3.2181 -1.077781,-4.09122 -0.492542,-1.12057 -0.757242,-2.72889 -0.899941,-5.46806 -0.259828,-4.98749 -0.460529,-5.54655 -1.939382,-5.40223 -1.722842,0.16814 -2.592977,11.55353 -1.147399,15.01328 0.298311,0.71396 0.636596,2.25668 0.751742,3.42825 0.142178,1.44661 0.477541,2.4905 1.045115,3.25314 0.459666,0.61764 0.835757,1.34955 0.835757,1.62646 0,0.27691 0.380981,1.06488 0.846625,1.75105 0.465644,0.68616 0.964214,1.61806 1.107932,2.07088 0.288838,0.91004 1.200249,2.28612 2.807942,4.23953 0.582084,0.70725 1.455209,1.86526 1.940278,2.57335 1.700344,2.48211 3.532299,4.71004 4.029938,4.901 0.276254,0.10601 1.127054,1.03847 1.890665,2.07213 0.763612,1.03367 1.99392,2.19424 2.734019,2.57905 1.341042,0.69728 3.339821,2.50147 3.339821,3.01468 0,0.48334 4.498699,2.80026 5.437182,2.80026 0.502049,0 0.912817,0.16132 0.912817,0.35849 0,0.19717 0.585149,0.63373 1.300331,0.97014 0.715181,0.33641 1.660465,0.96884 2.100631,1.4054 0.440165,0.43656 1.101835,0.79375 1.470378,0.79375 0.368542,0 1.082205,0.38195 1.585916,0.84877 0.503711,0.46683 1.51908,1.03614 2.256374,1.26515 0.737295,0.22901 1.896161,0.67171 2.575258,0.98379 0.679097,0.31208 2.264363,0.63677 3.522812,0.72153 1.25845,0.0848 2.449075,0.35384 2.645833,0.59795 1.785933,2.21577 31.570157,1.96743 31.580697,-0.26332 0.001,-0.3031 0.60522,-0.45959 1.85208,-0.48004 2.01089,-0.033 6.94221,-1.56221 8.40832,-2.60747 0.50266,-0.35836 1.5851,-0.85266 2.40544,-1.09844 0.82033,-0.24578 1.67907,-0.71465 1.90832,-1.04194 0.22924,-0.32729 0.91627,-0.70477 1.52673,-0.83885 0.61047,-0.13408 1.38913,-0.55229 1.73036,-0.92935 0.34123,-0.37705 0.83257,-0.68556 1.09186,-0.68556 0.57541,0 3.65025,-2.30917 4.28881,-3.22086 0.25414,-0.36283 0.74597,-0.65969 1.09295,-0.65969 0.34698,0 0.91821,-0.3175 1.26939,-0.70556 0.35119,-0.38805 0.81235,-0.71356 1.02482,-0.72334 0.74972,-0.0345 8.32379,-8.60782 8.32379,-9.42192 0,-0.1733 0.41233,-0.69994 0.91628,-1.17033 0.50395,-0.47038 1.21472,-1.41086 1.57949,-2.08996 1.90549,-3.54747 6.97049,-5.37996 6.7696,-2.44921 -0.10254,1.49588 -1.75409,4.84095 -2.82717,5.72618 -0.43657,0.36013 -0.79375,0.86441 -0.79375,1.12061 0,0.2562 -0.21395,0.54792 -0.47545,0.64827 -0.26149,0.10034 -1.2315,1.18889 -2.15558,2.41899 -0.92407,1.2301 -2.58528,3.0563 -3.69158,4.05822 -1.10629,1.00192 -2.39847,2.3899 -2.8715,3.0844 -0.47303,0.69449 -1.08424,1.2638 -1.35823,1.26513 -0.98414,0.005 -4.01236,1.98623 -7.26294,4.75239 -2.18472,1.85914 -3.51677,2.65835 -4.43068,2.65835 -0.51822,0 -1.32082,0.29441 -1.78355,0.65425 -0.46273,0.35984 -1.44226,0.85026 -2.17674,1.08982 -0.73447,0.23956 -1.58617,0.81827 -1.89265,1.28602 -0.3997,0.61002 -0.88141,0.85047 -1.70382,0.85047 -0.63062,0 -1.55021,0.3175 -2.04354,0.70555 -0.56421,0.44381 -1.43115,0.70556 -2.33685,0.70556 -0.79193,0 -2.27502,0.3261 -3.29574,0.72467 -3.15128,1.2305 -17.34,2.39265 -21.08226,1.72676 z"
         id="path1245" /><path
         style="fill:url(#linearGradient1509);fill-opacity:1;fill-rule:evenodd"
         d="m 100.25181,212.10807 c -3.204708,-0.0853 -4.29404,-0.23407 -4.50767,-0.6158 -0.399353,-0.71361 -2.541073,-1.23246 -5.096851,-1.23475 -1.834439,-0.002 -2.324991,-0.13813 -3.02983,-0.84297 -0.571157,-0.57116 -1.453551,-0.92507 -2.750063,-1.10301 -1.049982,-0.14409 -2.287655,-0.55939 -2.750383,-0.92288 -0.584744,-0.45934 -1.418548,-0.66089 -2.734028,-0.66089 -1.432565,0 -1.892702,-0.12644 -1.892702,-0.5201 0,-0.58797 -1.737274,-1.59656 -2.750027,-1.59656 -0.367619,0 -0.950324,-0.31153 -1.294899,-0.69228 -0.344575,-0.38075 -1.202617,-0.88 -1.906759,-1.10944 -0.704142,-0.22944 -1.729002,-0.79104 -2.277465,-1.248 -0.548463,-0.45696 -1.342213,-0.83589 -1.763888,-0.84206 -0.421676,-0.006 -1.074838,-0.24429 -1.451471,-0.52917 -0.376633,-0.28487 -1.199029,-0.51794 -1.827547,-0.51794 -0.916497,0 -1.16508,-0.15716 -1.25549,-0.79375 -0.08311,-0.5852 -0.455868,-0.87853 -1.418722,-1.11642 -0.917084,-0.22658 -1.337295,-0.53962 -1.411111,-1.05123 -0.064,-0.44356 -0.516944,-0.86935 -1.157849,-1.08845 -0.579001,-0.19793 -1.333064,-0.63769 -1.675694,-0.97724 -0.342631,-0.33954 -0.790092,-0.61736 -0.994359,-0.61736 -0.204267,0 -1.253242,-0.9525 -2.331055,-2.11666 -1.077812,-1.16417 -2.094094,-2.11667 -2.258403,-2.11667 -0.164309,0 -0.683063,-0.35719 -1.152788,-0.79375 -0.469725,-0.43656 -1.310378,-1.19328 -1.868119,-1.6816 -0.55774,-0.48831 -1.280376,-1.2986 -1.605858,-1.80063 -0.325481,-0.50204 -1.888298,-2.31224 -3.472927,-4.02268 -1.584628,-1.71044 -3.26132,-3.67828 -3.725981,-4.37298 -1.553496,-2.32257 -2.066115,-3.0148 -3.757294,-5.07376 -0.924648,-1.12573 -1.684067,-2.23698 -1.687598,-2.46944 -0.0059,-0.39103 -1.206141,-2.37142 -2.714349,-4.47881 -0.346841,-0.48464 -0.900671,-1.47683 -1.230733,-2.20486 -0.330062,-0.72804 -0.766624,-1.32371 -0.970139,-1.32371 -0.203514,0 -0.370025,-0.48886 -0.370025,-1.08636 0,-0.5975 -0.38679,-2.06594 -0.859532,-3.2632 -0.472743,-1.19726 -0.966205,-2.81183 -1.096582,-3.58794 -0.130376,-0.77611 -0.625743,-1.9883 -1.100813,-2.69376 -1.380973,-2.05066 -1.378146,-15.24261 0.0036,-16.88474 0.499712,-0.59387 1.017172,-1.67041 1.149911,-2.3923 0.132739,-0.7219 0.615306,-1.76128 1.072371,-2.30974 0.457065,-0.54846 0.831027,-1.14378 0.831027,-1.32292 0,-0.61895 3.532469,-4.20198 4.145138,-4.20447 0.69554,-0.003 0.526667,2.31005 -0.263265,3.60565 -0.51532,0.84521 -0.70459,1.77917 -0.705555,3.48163 -10e-4,1.84517 -0.141476,2.45341 -0.678684,2.93958 -1.706768,1.54461 -1.977618,11.39804 -0.42046,15.29621 0.409776,1.02583 0.75023,2.21646 0.756564,2.64583 0.0063,0.42938 0.330609,1.65382 0.720611,2.72097 0.390002,1.06716 0.914844,2.75325 1.166317,3.74687 0.251472,0.99362 0.800322,2.36174 1.219666,3.04025 0.419345,0.67851 0.762445,1.46813 0.762445,1.75471 0,0.28657 0.323261,0.81359 0.718358,1.17115 0.395098,0.35756 1.021171,1.33466 1.391274,2.17134 0.370104,0.83668 0.820749,1.52124 1.001433,1.52124 0.180685,0 0.424579,0.48031 0.541988,1.06735 0.117409,0.58705 0.613503,1.46739 1.102431,1.95631 0.488928,0.48893 0.888959,1.02106 0.888959,1.18251 0,0.16145 0.254663,0.5049 0.565918,0.76322 0.311254,0.25832 0.704178,0.83332 0.873163,1.27778 1.041857,2.7403 13.741681,15.62505 15.400785,15.62505 0.192075,0 0.948509,0.47625 1.680966,1.05833 0.732456,0.58209 1.456448,1.05834 1.608871,1.05834 0.152423,0 0.750605,0.43656 1.329294,0.97013 1.619816,1.49355 2.972409,2.43154 3.941001,2.73299 0.485069,0.15097 1.26054,0.57015 1.723269,0.93152 0.462729,0.36136 1.056817,0.65702 1.320195,0.65702 0.263379,0 0.903211,0.47625 1.421849,1.05834 0.518639,0.58208 1.099858,1.05833 1.291598,1.05833 0.19174,0 1.162816,0.38518 2.157945,0.85595 0.99513,0.47077 2.280448,0.96834 2.856262,1.10571 0.575815,0.13737 1.303533,0.47198 1.617151,0.74356 0.313618,0.27159 1.541385,0.6502 2.72837,0.84136 1.231875,0.19839 2.711656,0.72318 3.447764,1.22271 0.881734,0.59836 1.772692,0.87515 2.817015,0.87515 0.863294,0 2.142906,0.32082 2.943005,0.73785 1.230017,0.64112 1.902089,0.72206 5.126537,0.61737 3.317,-0.1077 3.710897,-0.0563 3.710537,0.48445 -0.001,1.82296 19.75952,2.31655 28.35572,0.70829 2.30495,-0.43124 4.84495,-0.79104 5.64444,-0.79955 0.79949,-0.009 2.08861,-0.25686 2.86472,-0.55188 0.77611,-0.29502 2.20486,-0.75918 3.175,-1.03147 0.97014,-0.2723 2.04448,-0.83872 2.38742,-1.25871 0.37107,-0.45445 1.2886,-0.88788 2.26615,-1.07051 0.90345,-0.16878 1.89286,-0.52987 2.1987,-0.80243 0.30583,-0.27255 1.19106,-0.67164 1.96717,-0.88687 0.77612,-0.21522 1.71927,-0.62687 2.0959,-0.91476 0.37664,-0.28789 1.0363,-0.52344 1.46593,-0.52344 0.42963,0 1.42994,-0.51594 2.22292,-1.14653 2.85987,-2.27421 3.50447,-2.73403 3.83273,-2.73403 0.18351,0 0.7486,-0.38455 1.25575,-0.85456 0.50715,-0.47001 1.28439,-0.96504 1.72721,-1.10006 0.44281,-0.13502 1.09731,-0.50246 1.45443,-0.81653 0.35712,-0.31407 1.02465,-0.73185 1.4834,-0.92841 0.45876,-0.19656 1.19972,-0.91301 1.6466,-1.59211 0.44687,-0.67909 1.47508,-1.57 2.28491,-1.97978 2.0525,-1.0386 3.97939,-2.63422 5.22467,-4.32645 0.58208,-0.79101 1.21708,-1.44458 1.41111,-1.45238 0.19402,-0.008 0.98777,-0.74151 1.76389,-1.63046 0.77611,-0.88896 1.74623,-1.95789 2.15583,-2.37541 0.40959,-0.41752 0.85685,-1.11631 0.99391,-1.55288 0.13705,-0.43656 0.38235,-0.79375 0.5451,-0.79375 0.26091,0 2.39537,-2.66576 3.36071,-4.19724 0.19403,-0.30782 0.70997,-1.00967 1.14653,-1.55967 0.43656,-0.55 0.79375,-1.16115 0.79375,-1.35811 0,-0.19696 0.33021,-0.78009 0.73381,-1.29585 1.48917,-1.90301 3.0824,-4.71715 3.28938,-5.8101 0.34714,-1.83297 1.5735,-3.02714 3.46272,-3.37184 0.91579,-0.16708 2.0817,-0.57678 2.59091,-0.91042 0.88505,-0.57991 0.91776,-0.57812 0.74251,0.0407 -0.10083,0.35601 -0.28476,1.15227 -0.40873,1.76945 -0.12397,0.61718 -0.44091,1.30101 -0.70431,1.51961 -0.26341,0.21861 -0.58705,1.06301 -0.71922,1.87646 -0.13217,0.81345 -0.60299,1.87587 -1.04628,2.36094 -0.44328,0.48507 -0.9249,1.27882 -1.07027,1.76389 -0.14536,0.48507 -0.59975,1.3159 -1.00977,1.84628 -1.96285,2.5391 -2.25159,2.97264 -2.49511,3.74635 -0.14371,0.45657 -0.64226,1.39154 -1.10791,2.0777 -0.46564,0.68617 -0.84662,1.38417 -0.84662,1.55112 0,0.16696 -0.20857,0.30355 -0.46349,0.30355 -0.25492,0 -1.48523,1.25956 -2.73403,2.79903 -1.24879,1.53946 -2.40333,2.80946 -2.56562,2.82222 -0.1623,0.0128 -2.61645,2.34238 -5.45366,5.17694 -2.83722,2.83456 -5.81707,5.49362 -6.6219,5.90903 -2.53666,1.30928 -4.46181,2.73171 -4.64494,3.432 -0.10185,0.38949 -0.64509,0.7966 -1.28197,0.96072 -0.75412,0.19434 -1.14103,0.53035 -1.21795,1.05772 -0.0721,0.49439 -0.36212,0.7729 -0.80482,0.7729 -0.38065,0 -0.78347,0.23812 -0.89516,0.52916 -0.13558,0.35333 -0.69196,0.52917 -1.67432,0.52917 -1.52413,0 -3.03936,0.76882 -3.03936,1.54217 0,0.2441 -0.55562,0.70878 -1.23472,1.03262 -0.6791,0.32384 -1.23472,0.73522 -1.23472,0.91418 0,0.17896 -0.81103,0.43692 -1.80228,0.57325 -0.99124,0.13634 -2.07923,0.52484 -2.41773,0.86334 -0.33851,0.33851 -1.35082,0.69835 -2.24958,0.79966 -0.89877,0.1013 -2.07297,0.48176 -2.60935,0.84546 -0.53638,0.36369 -1.76898,0.90462 -2.73912,1.20204 -1.15567,0.35431 -1.88397,0.81048 -2.11212,1.32292 -0.31693,0.71181 -0.59762,0.78214 -3.12169,0.78214 -1.6702,0 -3.21565,0.20276 -3.88509,0.50973 -0.78673,0.36074 -3.6525,0.61853 -9.80453,0.88194 -8.21145,0.3516 -12.42424,0.37198 -22.3442,0.10807 z"
         id="path1246" /><path
         style="fill:url(#linearGradient1510);fill-opacity:1;fill-rule:evenodd"
         d="m 105.57145,219.94846 c -0.9507,-0.261 -3.4907,-0.6547 -5.644442,-0.87487 -2.153742,-0.22017 -4.47329,-0.54396 -5.154551,-0.71953 -0.681261,-0.17557 -3.013174,-0.55237 -5.182029,-0.83733 -2.168855,-0.28496 -4.389584,-0.74676 -4.934954,-1.02623 -0.545369,-0.27947 -1.944081,-0.71854 -3.108247,-0.97571 -1.164167,-0.25718 -2.654757,-0.83134 -3.312423,-1.27591 -0.657667,-0.44458 -1.432679,-0.80833 -1.722249,-0.80833 -0.289571,0 -1.02148,-0.30552 -1.626466,-0.67894 -0.604985,-0.37342 -1.893722,-0.87432 -2.863861,-1.1131 -0.970139,-0.23879 -2.637014,-0.91148 -3.704167,-1.49486 -1.067152,-0.58339 -2.575277,-1.39489 -3.351388,-1.80334 -2.629824,-1.38401 -6.681978,-3.89608 -9.566017,-5.9303 -1.71086,-1.20674 -2.749407,-1.90307 -4.545093,-3.04744 -3.347433,-2.13329 -16.403452,-14.14411 -16.404491,-15.09124 -1.79e-4,-0.16375 -1.109315,-1.48835 -2.464746,-2.94356 -1.35543,-1.45521 -2.982471,-3.49758 -3.615645,-4.53862 -0.633174,-1.04103 -1.587788,-2.41136 -2.121365,-3.04518 -0.533576,-0.63382 -0.970138,-1.27996 -0.970138,-1.43587 0,-0.1559 -0.299877,-0.6112 -0.666393,-1.01176 -0.366517,-0.40056 -1.273674,-1.91891 -2.015906,-3.37412 -0.742233,-1.45521 -1.712356,-3.09458 -2.155829,-3.64304 -0.443474,-0.54846 -0.806316,-1.20371 -0.806316,-1.45611 0,-0.2524 -0.237624,-0.65612 -0.528053,-0.89715 -0.29043,-0.24104 -0.766165,-1.24005 -1.057189,-2.22004 -0.291024,-0.97998 -0.741707,-2.1119 -1.001516,-2.51536 -0.25981,-0.40347 -0.669122,-1.52733 -0.909584,-2.49747 -0.240461,-0.97014 -0.654413,-2.00458 -0.919892,-2.29875 -0.26548,-0.29418 -0.653357,-1.29641 -0.861949,-2.22719 -0.208592,-0.93078 -0.613422,-2.04971 -0.899623,-2.48651 -1.139595,-1.73924 -1.953468,-6.08894 -1.391128,-7.43481 0.282358,-0.67578 0.513379,-1.46486 0.513379,-1.75352 0,-0.65793 1.473162,-2.85165 2.643112,-3.93593 0.54742,-0.50733 0.884665,-1.20487 0.884665,-1.82979 0,-0.74373 0.463831,-1.46878 1.7598,-2.75087 0.96789,-0.95753 1.76164,-1.93441 1.763889,-2.17086 0.0059,-0.62151 2.797888,-4.59899 3.386907,-4.82501 0.273755,-0.10505 0.497737,-0.51349 0.497737,-0.90763 0,-0.58465 0.228787,-0.71663 1.242285,-0.71663 0.952537,0 1.328174,-0.1885 1.610529,-0.8082 0.202534,-0.44452 0.715068,-0.96046 1.138964,-1.14653 0.928412,-0.40754 1.203554,-1.97938 0.455197,-2.60046 -0.752062,-0.62416 -2.097237,-0.33633 -2.477946,0.53021 -0.178215,0.40564 -0.813215,0.88189 -1.411111,1.05834 -0.733707,0.21652 -1.12373,0.57883 -1.199815,1.11456 -0.09255,0.65166 -0.335273,0.79375 -1.355944,0.79375 -0.946525,0 -1.287244,0.16838 -1.42772,0.70555 -0.101478,0.38806 -0.450836,0.70556 -0.776349,0.70556 -0.618958,0 -2.868485,2.57968 -4.614435,5.29167 -0.562108,0.87312 -1.358867,1.98437 -1.770576,2.46944 -1.418814,1.67163 -2.589209,3.70742 -2.83941,4.93889 -0.2508627,1.23472 -0.2508627,1.23472 -0.2914318,-0.0652 -0.022313,-0.71497 -0.1938371,-1.70308 -0.3811646,-2.19578 -0.3205985,-0.84324 0.3024733,-2.64217 1.7828154,-5.14732 0.171982,-0.29105 0.565608,-1.00542 0.874725,-1.5875 0.309117,-0.58209 1.25922,-1.77271 2.11134,-2.64584 0.852121,-0.87312 2.355247,-2.42237 3.34028,-3.44276 0.985033,-1.0204 2.219761,-2.12602 2.74384,-2.45694 0.52408,-0.33092 1.922977,-1.44074 3.108662,-2.46626 1.185684,-1.02553 2.30578,-1.86459 2.489101,-1.86459 0.183321,0 0.871244,-0.39688 1.528719,-0.88195 0.657475,-0.48507 1.462628,-0.88194 1.78923,-0.88194 0.326603,0 0.80945,-0.25982 1.072994,-0.57737 0.263544,-0.31755 1.195795,-0.88452 2.071668,-1.25994 0.875873,-0.37541 1.830621,-0.88924 2.121663,-1.14184 0.291041,-0.25259 1.087685,-0.55903 1.770319,-0.68098 0.682634,-0.12195 1.793884,-0.51567 2.469444,-0.87493 0.67556,-0.35927 1.798215,-0.75828 2.494788,-0.8867 0.696573,-0.12842 1.637058,-0.62793 2.089966,-1.11003 0.601575,-0.64035 1.190929,-0.87654 2.187141,-0.87654 0.750019,0 1.977431,-0.31312 2.727582,-0.69582 2.268401,-1.15725 14.609635,-2.29954 19.597421,-1.81391 2.134764,0.20785 6.10389,0.55929 8.820278,0.78098 2.896964,0.23643 5.361662,0.61915 5.961468,0.9257 0.562419,0.28744 2.149919,0.67739 3.527777,0.86656 1.605993,0.22048 2.765858,0.58666 3.2314,1.02019 2.367046,2.20426 11.102777,2.0397 13.253507,-0.24965 0.44729,-0.47612 1.19094,-0.83405 1.73282,-0.83405 0.52209,0 1.32786,-0.28548 1.79059,-0.6344 0.46273,-0.34892 1.8732,-0.83945 3.13438,-1.09006 1.26118,-0.25062 2.95903,-0.75889 3.773,-1.12949 0.81398,-0.37061 1.93407,-0.673832 2.48911,-0.673832 0.55503,0 1.5384,-0.390471 2.18527,-0.867714 0.64686,-0.477242 1.87019,-0.971797 2.7185,-1.099009 0.84832,-0.127212 1.92276,-0.530491 2.38765,-0.896175 0.46489,-0.365683 1.29646,-0.670062 1.84794,-0.676396 0.55148,-0.0063 1.87582,-0.333961 2.94297,-0.728059 1.06715,-0.394099 2.78901,-0.933777 3.82635,-1.199285 1.03733,-0.265508 2.16108,-0.731631 2.49722,-1.035829 1.17525,-1.063584 2.60103,0.787665 3.54997,4.60929 0.19914,0.802016 0.59907,1.654891 0.88871,1.895279 0.82151,0.68179 0.63526,0.94869 -0.82496,1.18218 -0.74337,0.11888 -1.63829,0.53294 -1.98871,0.92014 -0.35041,0.3872 -1.21063,0.81138 -1.91159,0.94263 -0.70097,0.13125 -1.67136,0.52938 -2.15643,0.88475 -0.48507,0.35537 -1.7397,0.80722 -2.78806,1.00411 -1.04836,0.19689 -2.37188,0.59034 -2.94115,0.87433 -0.56927,0.28399 -2.0134,0.70212 -3.20917,0.92919 -1.19577,0.22706 -2.49341,0.70064 -2.88364,1.0524 -0.39023,0.35176 -1.39715,0.74952 -2.2376,0.88391 -0.84044,0.13439 -1.97283,0.61858 -2.51641,1.07597 -0.54358,0.45739 -1.43122,0.83162 -1.97254,0.83162 -0.54133,0 -1.62966,0.30983 -2.41852,0.6885 -0.78887,0.37867 -2.43552,0.84756 -3.65923,1.04196 -1.22371,0.19441 -2.73183,0.65902 -3.35139,1.03247 -0.61955,0.37344 -1.76146,0.79054 -2.53757,0.92688 -0.77611,0.13633 -1.781052,0.59221 -2.233204,1.01306 -1.239398,1.1536 -9.024537,1.39486 -9.78905,0.30337 -0.546927,-0.78085 -3.144062,-1.47846 -5.504161,-1.47846 -0.845323,0 -1.93319,-0.30462 -2.633469,-0.73742 -0.893812,-0.55241 -2.187635,-0.82391 -5.156917,-1.08216 -2.18135,-0.18972 -4.802535,-0.6513 -5.829066,-1.02647 -1.220991,-0.44624 -2.77468,-0.68173 -4.497916,-0.68173 -1.605088,0 -2.632599,-0.14471 -2.632599,-0.37078 0,-1.43203 -18.254711,-2.05718 -20.769563,-0.71127 -3.433479,1.83754 -0.685946,2.7236 10.009842,3.2281 6.107879,0.2881 8.982137,0.55437 9.34861,0.86604 0.834245,0.70952 3.481245,1.28892 5.305977,1.16143 1.408217,-0.0984 1.774094,0.0138 2.345918,0.71909 0.581898,0.71776 1.134294,0.87782 3.915051,1.13442 1.815163,0.16749 3.59615,0.5337 4.053753,0.83353 0.503973,0.33022 2.496786,0.68928 5.20955,0.93865 2.416347,0.22213 4.925851,0.63723 5.576674,0.92245 3.082776,1.35101 10.82098,1.43295 13.39006,0.14179 0.71589,-0.35979 1.92786,-0.768 2.69325,-0.90713 0.7654,-0.13913 2.14918,-0.63684 3.07508,-1.10603 0.9259,-0.46919 2.17219,-0.85307 2.76954,-0.85307 0.6703,0 1.40416,-0.31805 1.91688,-0.83078 0.48875,-0.48874 1.42839,-0.91094 2.28232,-1.02547 0.79834,-0.10708 2.04446,-0.50334 2.76915,-0.88056 0.72469,-0.37723 2.11137,-0.80283 3.08151,-0.94578 0.97014,-0.14294 2.24014,-0.54614 2.82222,-0.89599 0.58209,-0.34986 1.92763,-0.81819 2.9901,-1.04073 1.06248,-0.22255 2.27462,-0.72673 2.69365,-1.12039 0.85451,-0.80277 3.10701,-0.65355 3.44539,0.22824 0.10019,0.26111 0.86525,0.66935 1.70013,0.90721 0.83487,0.23785 1.85954,0.736 2.27703,1.107 0.41749,0.37099 1.40733,0.76148 2.19963,0.86775 2.08162,0.27921 2.54123,1.00837 0.81008,1.2852 -0.74619,0.11932 -1.6289,0.51773 -1.9616,0.88535 -0.3327,0.36763 -1.20872,0.76496 -1.94673,0.88298 -0.73801,0.11801 -1.75947,0.54308 -2.26992,0.9446 -0.51045,0.40152 -1.68527,0.85346 -2.6107,1.0043 -0.92544,0.15084 -2.31526,0.61802 -3.0885,1.03817 -0.77324,0.42015 -1.80511,0.76472 -2.29305,0.76571 -0.48795,10e-4 -1.52217,0.39292 -2.29828,0.87094 -0.77611,0.47802 -1.65536,0.87408 -1.95388,0.88013 -0.29853,0.006 -1.17165,0.33549 -1.94028,0.73208 -0.76863,0.39659 -2.19126,0.8924 -3.1614,1.1018 -0.97014,0.2094 -2.31951,0.65965 -2.99861,1.00054 -0.6791,0.3409 -1.91492,0.7331 -2.74627,0.87156 -0.83135,0.13846 -1.9426,0.6101 -2.46944,1.04809 -0.52685,0.43799 -1.64491,0.88591 -2.48459,0.99536 -0.83967,0.10946 -1.79476,0.44162 -2.12241,0.73813 -0.32764,0.29652 -1.68476,0.7131 -3.015801,0.92573 -1.331046,0.21264 -2.995337,0.63464 -3.698424,0.93778 -1.70189,0.73378 -4.333155,0.70767 -6.922784,-0.0687 -1.397552,-0.41898 -3.338553,-0.64341 -5.71321,-0.66061 -3.058532,-0.0221 -3.619949,-0.11477 -3.753007,-0.6192 -0.221737,-0.84063 -2.847655,-1.46025 -5.267491,-1.24293 -1.742008,0.15644 -2.084717,0.0873 -2.389334,-0.48185 -0.598309,-1.11795 -1.631236,-1.42266 -5.92834,-1.74884 -2.273015,-0.17254 -4.718412,-0.5584 -5.434215,-0.85749 -4.450214,-1.85941 -13.38662,-10e-4 -14.958063,3.11046 -0.307834,0.60954 -0.837795,1.42576 -1.177691,1.81381 -0.339895,0.38806 -0.729969,1.18181 -0.86683,1.76389 -0.136861,0.58209 -0.594258,1.42831 -1.016437,1.88051 -1.330576,1.42517 -1.171507,17.03961 0.20254,19.88167 0.533577,1.10365 0.970733,2.37365 0.971458,2.82223 7.25e-4,0.44857 0.294073,1.29565 0.651883,1.88239 0.357811,0.58674 0.856554,1.69799 1.108319,2.46944 0.251764,0.77146 0.752166,1.78125 1.112005,2.24398 0.359838,0.46273 0.658315,1.01835 0.663281,1.23472 0.0099,0.4297 1.80841,3.33876 3.088873,4.9961 0.442666,0.57296 1.63329,2.10953 2.645833,3.41461 1.012542,1.30508 2.396611,3.09262 3.075708,3.97232 0.679097,0.87969 1.512534,1.68791 1.852083,1.79604 0.339549,0.10812 0.617361,0.33958 0.617361,0.51433 0,0.17476 0.381035,0.52125 0.846745,0.76998 0.46571,0.24873 1.457897,1.19328 2.204861,2.099 0.746964,0.90572 1.947949,2.09634 2.668856,2.64583 3.271817,2.49385 4.428812,3.29213 4.771456,3.29213 0.202788,0 0.46061,0.2395 0.572937,0.53222 0.112327,0.29272 0.645249,0.7231 1.184271,0.9564 0.539022,0.23331 1.428782,0.78756 1.977245,1.23167 0.548463,0.44412 1.201742,0.80749 1.45173,0.80749 0.249989,0 0.841564,0.30444 1.314612,0.67654 0.473047,0.3721 1.43596,0.78458 2.139805,0.91662 0.703844,0.13204 1.367857,0.46977 1.475584,0.7505 0.237374,0.61859 2.330234,1.53689 3.502647,1.53689 0.467543,0 1.044219,0.23393 1.281501,0.51983 0.237281,0.28591 1.010782,0.62302 1.71889,0.74914 0.708107,0.12612 1.619235,0.53099 2.024728,0.89971 1.013549,0.92163 2.734293,1.3591 5.345827,1.3591 1.213954,0 2.20719,0.15316 2.20719,0.34037 0,0.69338 1.147435,1.05184 9.172218,2.86544 3.02624,0.68392 15.34855,0.43994 18.34445,-0.36322 1.4552,-0.39012 3.29885,-0.71305 4.09698,-0.71762 2.39048,-0.0137 5.16642,-0.67653 5.96156,-1.42353 0.53814,-0.50555 1.2356,-0.70144 2.4975,-0.70144 1.83523,0 3.31895,-0.71863 3.31895,-1.6075 0,-0.36411 0.42863,-0.50917 1.50453,-0.50917 0.83054,0 2.09425,-0.31607 2.82095,-0.70555 0.72402,-0.38806 1.78771,-0.70556 2.36375,-0.70556 0.63408,0 1.50457,-0.38834 2.20614,-0.98419 0.63734,-0.54131 1.61122,-1.18013 2.16419,-1.41961 0.55296,-0.23948 1.08741,-0.74909 1.18767,-1.13247 0.10026,-0.38338 0.44158,-0.69765 0.7585,-0.69838 0.31692,-7.2e-4 1.09599,-0.31822 1.73127,-0.70555 0.63528,-0.38734 1.3811,-0.70424 1.65738,-0.70424 0.4852,0 3.33845,-2.23716 5.77973,-4.53175 0.65111,-0.61198 1.39365,-1.1127 1.65009,-1.1127 0.25644,0 0.77844,-0.39687 1.16,-0.88194 0.38155,-0.48507 0.79403,-0.88194 0.91662,-0.88194 0.29144,0 6.90751,-6.77982 6.90751,-7.07847 0,-0.12589 0.79375,-1.29074 1.76389,-2.58856 0.97014,-1.29782 1.76389,-2.45052 1.76389,-2.56156 0,-0.11103 0.47625,-0.7443 1.05833,-1.40726 0.58209,-0.66295 1.05834,-1.42579 1.05834,-1.6952 0,-0.2694 0.37632,-0.93856 0.83627,-1.48703 0.45995,-0.54846 0.94704,-1.50504 1.08241,-2.12572 0.22387,-1.02643 0.39555,-1.14936 1.89775,-1.35882 0.90839,-0.12666 2.28232,-0.36396 3.05317,-0.52734 1.76245,-0.37354 1.83773,-0.28474 0.9698,1.14404 -0.38925,0.64079 -0.82138,1.72071 -0.96027,2.3998 -0.13889,0.6791 -0.53465,1.55223 -0.87945,1.94028 -0.34481,0.38806 -0.74707,1.10002 -0.89392,1.58214 -0.27684,0.9089 -2.70066,4.37157 -3.33405,4.76303 -0.19833,0.12257 -0.3606,0.45928 -0.3606,0.74824 0,0.28896 -1.08517,1.61703 -2.41149,2.95126 -1.32632,1.33423 -2.66754,2.81666 -2.98049,3.29429 -0.31295,0.47762 -1.39224,1.48175 -2.39841,2.23139 -2.21983,1.65386 -4.90069,4.37468 -4.90585,4.97896 -0.002,0.24253 -0.21207,0.44097 -0.46667,0.44097 -1.01139,0 -3.34337,1.46672 -5.24612,3.2996 -1.10267,1.06218 -2.2933,1.98554 -2.64583,2.05191 -0.35254,0.0664 -0.79768,0.47693 -0.98921,0.91236 -0.25381,0.57701 -0.64692,0.79168 -1.44975,0.79168 -1.38788,0 -5.35454,2.02029 -6.04968,3.0812 -0.33874,0.51699 -0.87423,0.79936 -1.51591,0.79936 -0.63812,0 -1.23971,0.31471 -1.68589,0.88194 -0.54116,0.68797 -1.01619,0.88195 -2.15979,0.88195 -0.80633,0 -1.92509,0.23737 -2.48613,0.5275 -0.56103,0.29012 -2.17436,0.6912 -3.58516,0.89129 -1.4108,0.20009 -3.1267,0.70049 -3.81311,1.112 -0.71036,0.42588 -2.53316,0.94189 -4.23119,1.1978 -1.89028,0.28488 -3.13232,0.65355 -3.39028,1.00633 -0.35609,0.487 -1.81681,0.55675 -11.65942,0.55675 -6.18878,0 -11.76722,0.14766 -12.39653,0.32815 -0.99967,0.2867 -1.14419,0.24477 -1.14419,-0.33196 0,-0.9325 -0.31537,-1.05234 -3.973813,-1.51006 -2.373463,-0.29696 -3.401818,-0.58241 -3.787302,-1.05129 -0.337231,-0.41018 -1.424865,-0.79372 -2.99861,-1.05742 -1.358195,-0.22758 -2.628195,-0.60425 -2.822222,-0.83704 -0.443536,-0.53215 -2.8114,-1.18027 -4.321528,-1.18286 -0.63059,-0.001 -1.146527,-0.15664 -1.146527,-0.34569 0,-0.44408 -1.88542,-1.42017 -2.743209,-1.42017 -0.363869,0 -1.020197,-0.38173 -1.458506,-0.84829 -0.438309,-0.46655 -1.370351,-0.95586 -2.071204,-1.08734 -0.700853,-0.13148 -1.661318,-0.5435 -2.134366,-0.9156 -0.473048,-0.3721 -1.173018,-0.67655 -1.55549,-0.67655 -0.382471,0 -1.007584,-0.39687 -1.38914,-0.88194 -0.381556,-0.48507 -0.92139,-0.88194 -1.199633,-0.88194 -0.278242,0 -0.850973,-0.39688 -1.272735,-0.88195 -0.446572,-0.5136 -1.145995,-0.88194 -1.674675,-0.88194 -0.65177,0 -1.746685,-0.79604 -3.881862,-2.82222 -1.635716,-1.55223 -3.098434,-2.82223 -3.250484,-2.82223 -0.708463,0 -11.235359,-11.41103 -11.235359,-12.179 0,-0.1425 -0.515937,-0.86526 -1.146528,-1.60613 -1.771783,-2.08165 -2.734027,-3.40494 -2.734027,-3.75986 0,-0.17803 -0.396875,-0.69653 -0.881944,-1.15223 -0.48507,-0.4557 -0.882538,-1.15806 -0.883264,-1.5608 -7.25e-4,-0.40274 -0.294072,-1.21231 -0.651883,-1.79905 -0.357811,-0.58674 -0.85272,-1.69799 -1.099799,-2.46945 -0.247079,-0.77145 -0.726931,-1.87889 -1.066338,-2.46098 -0.339407,-0.58208 -0.710742,-1.67641 -0.82519,-2.43183 -0.114447,-0.75543 -0.515382,-1.70793 -0.890966,-2.11667 -0.445975,-0.48535 -0.77211,-1.53867 -0.940086,-3.03622 -0.141464,-1.26118 -0.473736,-3.00743 -0.738383,-3.88055 -0.635056,-2.09519 -0.616095,-8.42306 0.0333,-11.1125 0.281099,-1.16417 0.516744,-2.81284 0.523656,-3.66372 0.0096,-1.18323 0.218078,-1.7375 0.886454,-2.35694 0.518904,-0.4809 0.966512,-1.38912 1.101906,-2.23583 0.125409,-0.78427 0.605285,-1.9373 1.066389,-2.56229 0.461105,-0.625 0.838373,-1.35044 0.838373,-1.6121 0,-0.26165 0.714374,-1.23946 1.587499,-2.1729 3.211174,-3.43301 -0.331497,-5.97299 -5.041136,-3.61434 -0.719875,0.36053 -1.776476,0.76822 -2.348004,0.90599 -0.571527,0.13776 -1.556492,0.67623 -2.188809,1.19658 -0.632318,0.52036 -1.948389,1.5811 -2.924601,2.35721 -0.976213,0.77611 -1.777186,1.52052 -1.77994,1.65424 -0.0028,0.13372 -0.60032,0.96339 -1.327925,1.84371 -2.496979,3.02107 -2.969578,3.74242 -3.314998,5.05982 -0.190357,0.72601 -0.579242,1.83114 -0.864189,2.45586 -1.355563,2.97193 -1.564832,16.03941 -0.323609,20.20721 0.317812,1.06715 0.808685,3.04403 1.090829,4.39307 0.282145,1.34904 0.808363,2.77779 1.169374,3.175 0.361011,0.39721 0.840663,1.29832 1.065894,2.00246 0.225231,0.70415 0.721034,1.56219 1.101785,1.90676 0.380752,0.34458 0.694616,0.87971 0.697476,1.18919 0.0029,0.30947 0.229038,0.95956 0.502616,1.44463 0.273578,0.48507 0.801064,1.51694 1.172189,2.29305 0.371126,0.77611 0.955237,1.64271 1.298024,1.92578 0.342787,0.28307 0.76609,0.83869 0.940673,1.23472 0.174583,0.39603 0.869629,1.43443 1.544547,2.30756 0.674919,0.87312 1.554588,2.19054 1.95482,2.9276 0.400233,0.73706 0.958648,1.42873 1.240924,1.53705 0.282275,0.10832 0.513228,0.3609 0.513228,0.56129 0,0.20039 0.84983,1.25496 1.888511,2.3435 2.791229,2.92522 7.369553,7.51456 8.359171,8.37929 0.475649,0.41563 1.863705,1.80335 3.084568,3.08382 1.220863,1.28048 2.598439,2.42319 3.061279,2.53936 0.46284,0.11616 0.927407,0.435 1.032371,0.70854 0.106727,0.27812 0.667071,0.49732 1.27132,0.49732 0.710435,0 1.155459,0.21144 1.299416,0.61737 0.342988,0.96715 1.224726,1.85208 1.8454,1.85208 0.311311,0 0.764302,0.3175 1.006646,0.70555 0.32846,0.52595 0.822688,0.70556 1.941484,0.70556 1.218077,0 1.566469,0.14955 1.849094,0.79375 0.19153,0.43656 0.705424,0.84448 1.141986,0.90648 0.506771,0.072 0.79375,0.35636 0.79375,0.78658 0,0.4256 0.496059,0.92692 1.346517,1.36079 0.740584,0.37782 1.552826,0.93553 1.804983,1.23936 0.252157,0.30383 1.114662,0.72708 1.916678,0.94055 0.802016,0.21347 1.716805,0.6187 2.032865,0.9005 0.338077,0.30144 1.427334,0.54209 2.645834,0.58455 1.739109,0.0606 2.101599,0.18528 2.260919,0.77772 0.123171,0.45801 0.761927,0.89121 1.820589,1.23472 0.896966,0.29104 1.929315,0.80153 2.294109,1.13443 0.364795,0.33289 1.528365,0.79079 2.585713,1.01755 1.057347,0.22676 2.313762,0.66877 2.792032,0.98224 0.664945,0.43582 1.765555,0.56995 4.676924,0.56995 2.849696,0 3.807544,0.11311 3.808144,0.4497 0.0011,0.62237 1.457852,1.11616 4.390956,1.4884 1.368949,0.17373 3.282759,0.68186 4.252899,1.12917 2.60781,1.2024 17.04349,1.22964 20.6375,0.0389 1.26118,-0.41783 3.4043,-0.86686 4.7625,-0.99784 2.91134,-0.28075 4.7625,-0.96539 4.7625,-1.76137 0,-0.4208 0.19626,-0.50865 0.74636,-0.33405 1.25906,0.39961 5.24938,-0.18787 5.93534,-0.87383 0.41025,-0.41024 1.38914,-0.68481 2.87897,-0.80751 1.47824,-0.12175 2.85389,-0.50517 3.98562,-1.11085 0.95053,-0.50871 2.01057,-0.92493 2.35564,-0.92493 0.34508,0 0.93959,-0.39687 1.32115,-0.88194 0.42885,-0.5452 1.05146,-0.88195 1.63062,-0.88195 1.07915,0 3.01851,-0.91244 3.01851,-1.42017 0,-0.18904 0.36156,-0.34372 0.80345,-0.34372 0.4419,0 1.19276,-0.27268 1.66859,-0.60596 0.47582,-0.33328 1.50333,-0.9286 2.28335,-1.32292 0.88726,-0.44853 1.45867,-1.00066 1.52624,-1.47474 0.0594,-0.41678 0.4166,-0.83848 0.79375,-0.93711 0.44572,-0.11656 0.68574,-0.48441 0.68574,-1.05096 0,-0.81803 0.093,-0.86115 1.51317,-0.70108 1.11446,0.12561 1.63711,0.0212 1.98348,-0.39611 0.25866,-0.31167 0.76283,-0.56667 1.12038,-0.56667 0.35754,0 1.1925,-0.47625 1.85546,-1.05834 0.66295,-0.58208 1.41596,-1.05833 1.67334,-1.05833 0.25738,0 1.20886,-0.77678 2.1144,-1.72619 0.90554,-0.9494 1.99645,-1.83727 2.42425,-1.97305 1.06368,-0.3376 13.77385,-13.11995 13.77385,-13.85208 0,-0.18552 0.40617,-0.79706 0.9026,-1.35897 2.87701,-3.25645 4.74184,-5.73366 4.74184,-6.29899 0,-0.22979 0.47183,-1.0414 1.04852,-1.80357 0.57668,-0.76217 1.05293,-1.56476 1.05833,-1.78354 0.005,-0.21877 0.24721,-0.59479 0.53736,-0.8356 0.29015,-0.2408 0.71981,-1.07956 0.95481,-1.86391 0.235,-0.78435 0.79135,-1.79018 1.23635,-2.23517 0.44499,-0.445 0.80907,-1.16307 0.80907,-1.59572 0,-3.84005 2.02149,-6.5443 5.23113,-6.99798 1.18368,-0.16732 2.35622,-0.42373 2.60564,-0.5698 0.24943,-0.14608 0.17702,0.0505 -0.16091,0.43693 -0.33793,0.38639 -0.76879,1.48524 -0.95747,2.44189 -0.18868,0.95665 -0.74563,2.52033 -1.23767,3.47484 -0.49203,0.95452 -0.90515,1.90702 -0.91803,2.11667 -0.0129,0.20965 -0.56421,1.09556 -1.22518,1.96869 -0.66097,0.87312 -1.60341,2.38125 -2.09432,3.35138 -2.09502,4.14017 -3.49181,6.40705 -5.0889,8.25888 -0.93525,1.08442 -1.94477,2.44793 -2.24336,3.03001 -0.2986,0.58209 -1.16745,1.69334 -1.93077,2.46945 -0.76332,0.77611 -2.35692,2.5547 -3.54132,3.95242 -3.42346,4.04002 -11.91815,11.70746 -15.4565,13.95127 -1.14757,0.72772 -2.80088,1.86823 -3.674,2.53447 -0.87313,0.66623 -2.93687,1.87684 -4.58611,2.69023 -1.64924,0.8134 -3.31611,1.76659 -3.70417,2.11821 -1.15859,1.04981 -6.92352,3.9438 -8.81944,4.42735 -2.18505,0.5573 -5.97427,1.93614 -7.47901,2.72151 -0.62095,0.32409 -1.38804,0.58926 -1.70463,0.58926 -0.31659,0 -1.71354,0.38282 -3.10432,0.8507 -1.39079,0.46789 -3.63996,1.0329 -4.99815,1.25559 -1.35819,0.22268 -3.26319,0.62454 -4.23333,0.89301 -0.97014,0.26848 -3.03389,0.59296 -4.58611,0.72108 -1.55223,0.12812 -4.56847,0.53243 -6.70278,0.89846 -4.5775,0.78505 -11.81446,0.85285 -14.42855,0.13518 z M 31.52696,116.76944 c 0.113437,-0.43378 0.481194,-0.70555 0.954751,-0.70555 1.02621,0 1.61691,-0.6444 1.61691,-1.76389 0,-1.09291 -0.586605,-1.76389 -1.542083,-1.76389 -0.893781,0 -1.985694,0.98712 -1.985694,1.79513 0,0.42168 -0.317158,0.66405 -0.967123,0.73907 -0.981452,0.11329 -1.398769,0.8936 -1.014062,1.89613 0.318658,0.83041 2.710578,0.66999 2.937301,-0.197 z"
         id="path1247" /><path
         style="fill:url(#linearGradient1511);fill-opacity:1;fill-rule:evenodd"
         d="m 99.127937,97.921194 c 0.125964,-0.919007 0.547772,-2.076143 0.937353,-2.571413 0.38958,-0.495269 0.70832,-1.190396 0.70832,-1.544727 0,-0.354331 0.34186,-0.962722 0.75967,-1.351979 0.41782,-0.389258 1.01314,-1.253532 1.32292,-1.920608 0.70299,-1.513776 6.81825,-6.778861 8.50075,-7.318927 0.67909,-0.217983 1.72971,-0.69458 2.33469,-1.059104 3.58067,-2.157473 11.92326,0.0171 16.49673,4.300015 2.30052,2.154377 1.86889,3.082354 -1.6841,3.620631 -0.75542,0.114448 -1.71619,0.530022 -2.13502,0.9235 -0.41884,0.393477 -1.61535,0.877338 -2.65892,1.075246 -1.04356,0.197908 -2.14655,0.5787 -2.45108,0.846203 -0.30453,0.267504 -1.66494,0.731642 -3.02314,1.031419 -4.53542,1.001044 -8.65707,2.260213 -9.2985,2.840701 -0.34916,0.315982 -0.97205,0.574513 -1.3842,0.574513 -0.85958,0 -2.47306,0.63596 -3.25984,1.284877 -1.78306,1.470609 -5.397268,0.959615 -5.165633,-0.730347 z"
         id="path1241" /><path
         style="display:inline;fill:url(#linearGradient1512);fill-rule:evenodd"
         d="m 394.60913,125.10669 c -0.13079,-0.13335 -2.59142,-0.37743 -5.46806,-0.5424 -3.11344,-0.17855 -5.83589,-0.52143 -6.72667,-0.8472 -0.82303,-0.30099 -2.64865,-0.64846 -4.05694,-0.77215 -1.71714,-0.15082 -2.79292,-0.4336 -3.26608,-0.85852 -0.38806,-0.3485 -1.18181,-0.74523 -1.76389,-0.88162 -0.58208,-0.13639 -1.45521,-0.61308 -1.94028,-1.05932 -0.48507,-0.44624 -1.35819,-0.92336 -1.94028,-1.06027 -0.58208,-0.13691 -1.29645,-0.44567 -1.5875,-0.68612 -0.29104,-0.24045 -1.16416,-0.63526 -1.94027,-0.87735 -3.98206,-1.2421 -4.59139,-3.29452 -1.00843,-3.39668 0.83872,-0.0239 1.94936,-0.32157 2.46809,-0.66145 0.51873,-0.33988 1.87526,-0.83542 3.0145,-1.10119 1.13925,-0.26576 2.48266,-0.7527 2.98536,-1.08208 1.31217,-0.85977 8.45205,-0.86709 9.76013,-0.01 0.4943,0.32387 1.58459,0.67859 2.42287,0.78826 0.83828,0.10966 2.91442,0.46137 4.61365,0.78157 2.88399,0.54346 3.29669,0.54247 6.20404,-0.0149 1.71299,-0.32838 3.57944,-0.59705 4.14766,-0.59705 0.56822,0 1.60229,-0.30505 2.29794,-0.6779 0.69565,-0.37285 2.17919,-0.84693 3.29675,-1.05352 1.11755,-0.2066 2.53041,-0.67507 3.13968,-1.04105 0.60926,-0.36599 1.79701,-0.76923 2.63943,-0.8961 0.84242,-0.12687 2.11658,-0.52907 2.83145,-0.89377 0.73296,-0.37393 2.83418,-0.84174 4.81832,-1.07274 1.9352,-0.2253 4.30143,-0.63708 5.25827,-0.91506 4.0798,-1.18524 6.01395,0.65466 3.55014,3.37714 -0.29005,0.3205 -0.52736,0.74628 -0.52736,0.94618 0,0.1999 -0.9525,1.3738 -2.11667,2.60868 -1.16416,1.23487 -2.11666,2.4224 -2.11666,2.63895 0,0.21654 -0.39688,0.57455 -0.88195,0.79556 -0.48507,0.22101 -0.88194,0.56399 -0.88194,0.76218 0,0.19819 -0.22595,0.36034 -0.5021,0.36034 -0.27616,0 -0.95084,0.37515 -1.49931,0.83367 -0.54846,0.45852 -1.35025,0.94416 -1.78175,1.07919 -0.4315,0.13503 -1.07872,0.61949 -1.43826,1.07657 -0.35954,0.45708 -1.32435,1.01164 -2.14403,1.23236 -0.81968,0.22071 -1.57851,0.63111 -1.6863,0.91198 -0.11198,0.29184 -0.67111,0.51561 -1.30474,0.52219 -0.60984,0.006 -1.98191,0.3281 -3.04907,0.71504 -1.12609,0.40831 -3.64265,0.84531 -5.99722,1.04142 -2.23132,0.18584 -4.85069,0.43503 -5.82083,0.55374 -0.97014,0.11871 -1.8709,0.10674 -2.00169,-0.0266 z"
         id="path1492"
         transform="translate(-229.3857,6.7695629)" /></g><g
       inkscape:groupmode="layer"
       id="layer4"
       inkscape:label="Top"
       style="fill:url(#linearGradient1389)"><path
         style="display:inline;fill:url(#linearGradient1513);fill-opacity:1"
         d="M 8.1076313,123.29583 C 7.2480265,121.2113 7.8526591,96.189026 8.8170344,93.937711 c 0.571824,-1.334912 0.9432187,-2.854641 0.9483388,-3.880556 0.00463,-0.927478 0.1738223,-2.321324 0.3759858,-3.097435 0.202163,-0.776111 0.662328,-2.919236 1.022589,-4.7625 0.360261,-1.843264 1.062642,-4.224514 1.560846,-5.291666 0.498204,-1.067153 0.907377,-2.198653 0.909272,-2.514444 0.0019,-0.31579 0.243174,-0.773121 0.536175,-1.01629 0.293,-0.243169 0.779662,-1.291548 1.08147,-2.329731 0.301808,-1.038183 0.690324,-1.975108 0.863368,-2.082055 0.173045,-0.106948 0.579668,-1.13905 0.903607,-2.293561 0.323939,-1.154511 0.806946,-2.280006 1.073348,-2.5011 0.266401,-0.221093 0.484367,-0.608495 0.484367,-0.860892 0,-0.252398 0.375632,-0.907647 0.834739,-1.45611 0.459106,-0.548463 1.478497,-2.31348 2.265312,-3.922259 0.786815,-1.60878 2.083523,-3.751905 2.881573,-4.7625 0.798049,-1.010596 1.995474,-2.658793 2.660943,-3.662661 0.665469,-1.003868 1.969691,-2.617435 2.898271,-3.585704 0.92858,-0.968269 2.126375,-2.369422 2.661767,-3.113674 1.176381,-1.635293 7.259821,-7.741965 10.668225,-10.708964 1.358194,-1.182301 2.720886,-2.378732 3.028205,-2.658735 0.307318,-0.280004 0.6764,-0.509097 0.820182,-0.509097 0.143782,0 1.400464,-0.802605 2.792628,-1.783567 2.456284,-1.730774 4.574637,-3.097771 7.623006,-4.919211 0.811814,-0.485069 1.98264,-1.221724 2.601835,-1.637011 2.13617,-1.432705 8.662985,-4.533194 10.296056,-4.891025 0.580998,-0.127305 1.27621,-0.417139 1.544916,-0.644075 0.524903,-0.443307 4.783555,-1.961254 8.511223,-3.033725 1.261181,-0.362849 2.928056,-0.906756 3.704167,-1.208682 0.776111,-0.301926 1.925345,-0.555925 2.553854,-0.564441 0.628509,-0.0085 1.977884,-0.3380578 2.998611,-0.7323138 1.044685,-0.4035099 3.474923,-0.8663193 5.560033,-1.058841 2.037292,-0.1881065 4.577293,-0.5016032 5.644443,-0.6966593 6.31986,-1.1551554 16.3503,-1.2200107 21.80069,-0.1409599 1.41587,0.2803087 4.28564,0.6472172 6.37728,0.8153523 2.27008,0.1824796 4.25257,0.5382015 4.9184,0.8825174 0.6135,0.3172494 2.18872,0.8060463 3.50051,1.0862153 3.95214,0.844092 8.67506,2.158962 9.79628,2.727302 0.5805,0.294251 1.88937,0.731005 2.90862,0.970566 1.01924,0.23956 1.93427,0.566781 2.03338,0.727157 0.0991,0.160377 0.77332,0.479188 1.49822,0.708469 2.60294,0.823292 10.45653,4.595198 12.67192,6.086048 0.95085,0.639877 2.27771,1.389187 2.94856,1.665134 0.67086,0.275947 1.90501,0.983541 2.74256,1.572431 0.83755,0.588889 2.04358,1.388208 2.68006,1.776264 1.61225,0.982976 4.69846,3.44506 7.90011,6.302459 1.49252,1.332048 3.10407,2.681423 3.58121,2.998611 1.00935,0.670987 6.40493,6.11744 7.95191,8.026894 0.58209,0.718471 2.54158,3.066723 4.35443,5.218339 1.81285,2.151616 3.57821,4.547029 3.92303,5.32314 0.34482,0.776111 0.96502,1.713528 1.37821,2.083149 0.4132,0.36962 0.75128,0.786949 0.75128,0.927398 0,0.280961 2.18744,3.985699 2.76234,4.67841 0.19824,0.238873 0.55616,1.225953 0.79536,2.193512 0.2392,0.967559 0.7272,2.137794 1.08444,2.600523 0.35724,0.462729 0.64952,1.016075 0.64952,1.229659 0,0.213583 0.38458,1.184362 0.85461,2.157285 1.96819,4.073929 2.69361,6.03911 3.04535,8.249913 0.20462,1.286166 0.59368,2.678196 0.86457,3.093401 0.48272,0.739899 1.64699,4.743549 2.29389,7.888138 2.25567,10.964847 1.39442,16.834887 -2.41479,16.458647 -2.0907,-0.2065 -2.04357,-0.0905 -2.48412,-6.114949 -0.21537,-2.945202 -0.63062,-6.272618 -0.92277,-7.394257 -0.29215,-1.121639 -0.53207,-2.601303 -0.53315,-3.288142 -0.003,-1.811997 -0.60303,-3.694275 -1.41112,-4.42559 -0.49869,-0.451305 -0.70358,-1.0862 -0.70358,-2.180181 0,-0.852391 -0.39488,-2.481648 -0.88194,-3.638861 -0.48507,-1.152473 -0.88195,-2.28197 -0.88195,-2.509991 0,-0.704304 -2.48139,-5.615842 -3.20054,-6.334996 -0.37401,-0.374007 -0.68001,-0.985332 -0.68001,-1.358501 0,-0.373169 -0.37516,-1.127231 -0.83368,-1.675695 -0.45852,-0.548463 -0.95431,-1.38228 -1.10177,-1.852927 -0.59108,-1.886605 -1.91026,-4.013878 -3.55035,-5.725222 -0.95019,-0.991475 -1.89054,-2.07648 -2.08966,-2.411121 -2.33754,-3.928444 -10.3971,-11.958197 -15.30977,-15.25315 -3.41137,-2.288023 -3.68169,-2.491129 -4.70636,-3.536035 -0.52323,-0.533576 -1.19668,-0.970139 -1.49654,-0.970139 -0.29986,0 -0.5452,-0.151321 -0.5452,-0.336269 0,-0.184949 -0.7187,-0.654186 -1.59712,-1.04275 -0.87841,-0.388564 -1.84225,-0.951617 -2.14186,-1.25123 -0.29961,-0.299613 -0.92663,-0.54475 -1.39337,-0.54475 -0.51696,0 -1.07551,-0.346298 -1.4292,-0.886088 -0.31932,-0.487349 -0.9463,-0.977876 -1.39328,-1.090061 -0.44698,-0.112185 -1.08078,-0.50021 -1.40845,-0.862278 -0.32766,-0.362068 -1.30418,-0.76454 -2.17003,-0.894382 -0.86585,-0.129842 -1.85052,-0.532591 -2.18815,-0.894998 -0.33764,-0.362406 -1.33495,-0.875931 -2.21627,-1.141167 -0.88131,-0.265236 -1.94211,-0.821972 -2.35733,-1.237192 -0.41522,-0.41522 -1.11213,-0.755923 -1.54869,-0.757119 -0.43656,-0.0012 -1.27,-0.257139 -1.85208,-0.568763 -0.58209,-0.311625 -1.97902,-0.786891 -3.1043,-1.056146 -1.12528,-0.269255 -2.48758,-0.717926 -3.02734,-0.997046 -0.53976,-0.27912 -1.78044,-0.577498 -2.75706,-0.663062 -0.97663,-0.08556 -2.55728,-0.548144 -3.51256,-1.027956 -1.20436,-0.604912 -2.65195,-0.952208 -4.72144,-1.132732 -1.64151,-0.143191 -3.54042,-0.502015 -4.21982,-0.797388 -3.18544,-1.384899 -32.738595,-1.387829 -35.983866,-0.0036 -0.679097,0.289667 -2.425347,0.641673 -3.880555,0.782235 -2.643195,0.255313 -3.624068,0.573603 -4.515835,1.46537 -0.260398,0.260397 -0.819298,0.481431 -1.242002,0.491187 -2.328799,0.05374 -3.819891,0.347601 -5.114114,1.007865 -0.795939,0.406058 -1.890049,0.739838 -2.431355,0.741733 -0.541306,0.0019 -1.833393,0.39877 -2.871305,0.881944 -1.037912,0.483174 -2.204532,0.878499 -2.59249,0.878499 -0.387957,0 -1.150261,0.47625 -1.694008,1.058333 -0.543747,0.582083 -1.202751,1.05837 -1.464454,1.058414 -0.261703,4.4e-5 -1.348948,0.469995 -2.416101,1.044335 -1.067153,0.574341 -2.223072,1.050554 -2.56871,1.058253 -0.345638,0.0077 -0.719254,0.250672 -0.830257,0.539941 -0.111002,0.289269 -0.83692,0.716223 -1.613149,0.948787 -0.77623,0.232564 -1.493414,0.636761 -1.593744,0.898215 -0.100329,0.261455 -0.679117,0.732022 -1.286195,1.045704 -0.607077,0.313683 -1.278204,0.808414 -1.491393,1.099403 -0.373114,0.509275 -1.531507,1.203296 -3.908236,2.341516 -0.616469,0.295228 -1.214833,0.832884 -1.329698,1.194791 -0.114865,0.361906 -0.602668,0.83745 -1.084008,1.056763 -0.48134,0.219313 -0.875164,0.610877 -0.875164,0.870142 0,0.259265 -0.515937,0.741855 -1.146527,1.072422 -2.083708,1.092317 -7.311863,5.56745 -7.318235,6.264175 -10e-4,0.114476 -0.914716,1.161306 -2.030375,2.326289 -1.11566,1.164983 -2.504722,2.784506 -3.086805,3.598941 -0.582084,0.814434 -1.323267,1.751978 -1.647073,2.083432 -0.323807,0.331454 -0.698204,1.039205 -0.831994,1.572782 -0.13379,0.533576 -0.468099,0.970139 -0.742909,0.970139 -0.274809,0 -0.647828,0.389728 -0.82893,0.866063 -0.181103,0.476335 -0.812173,1.296326 -1.40238,1.822202 -0.590206,0.525877 -1.073103,1.240348 -1.073103,1.587715 0,0.347366 -0.396875,1.216403 -0.881944,1.931193 -0.485069,0.71479 -0.881944,1.556778 -0.881944,1.871085 0,0.314307 -0.303224,0.760833 -0.673831,0.992281 -0.370606,0.231448 -0.7753,0.882804 -0.899319,1.44746 -0.124019,0.564655 -0.605715,1.357247 -1.070434,1.761316 -0.46472,0.404068 -0.958054,1.338711 -1.096299,2.076983 -0.138244,0.738272 -0.542704,1.739187 -0.898801,2.224257 -0.356096,0.485069 -0.752258,1.675694 -0.880359,2.645833 -0.128101,0.970139 -0.515245,2.128531 -0.86032,2.574205 -0.345075,0.445674 -0.737003,1.318799 -0.87095,1.940278 -0.133948,0.621479 -0.617114,1.771981 -1.073703,2.556671 -0.467894,0.80412 -0.983166,2.505536 -1.180783,3.898914 -0.192842,1.359712 -0.578295,3.019568 -0.856563,3.688568 -0.577478,1.388347 -1.491426,9.88259 -1.819988,16.91498 -0.267769,5.73119 -0.50295,6.34254 -3.79988,9.87778 -1.357115,1.4552 -2.670281,3.12208 -2.9181458,3.70416 -0.4155584,0.9759 -0.4733271,1.00338 -0.7416149,0.35278 z"
         id="path1" /><path
         style="fill:url(#linearGradient1514);fill-opacity:1"
         d="m 19.089635,110.98775 c -0.47686,-2.54188 -0.0037,-13.699885 0.631494,-14.891693 0.320748,-0.60182 0.813999,-2.528169 1.096114,-4.280775 0.282114,-1.752606 0.71038,-3.555486 0.951702,-4.0064 0.241321,-0.450913 0.564659,-2.068652 0.718529,-3.594975 0.153869,-1.526322 0.44356,-2.972497 0.643758,-3.21372 0.200198,-0.241224 0.548267,-1.300887 0.773486,-2.354806 0.247218,-1.156861 0.734832,-2.218847 1.230485,-2.679899 0.451547,-0.420025 0.92403,-1.213775 1.049962,-1.763889 0.125932,-0.550113 0.608602,-1.785438 1.072601,-2.745166 0.463998,-0.959729 0.843633,-2.04263 0.843633,-2.406449 0,-0.363818 0.245921,-0.907408 0.546491,-1.207978 0.30057,-0.30057 0.63435,-0.985788 0.741734,-1.522707 0.107383,-0.536918 0.655213,-1.316286 1.217398,-1.731927 0.562185,-0.415642 1.022155,-0.976905 1.022155,-1.247251 0,-0.270346 0.396875,-0.963197 0.881944,-1.53967 0.48507,-0.576472 0.881944,-1.308009 0.881944,-1.625638 0,-0.31763 0.22579,-0.664152 0.501756,-0.770049 0.275965,-0.105898 0.75093,-0.815291 1.055476,-1.576428 0.30628,-0.765467 0.794848,-1.383887 1.093308,-1.383887 0.296773,0 0.732176,-0.436563 0.967564,-0.970139 0.235388,-0.533576 0.708234,-1.177578 1.05077,-1.431115 0.342536,-0.253537 0.622793,-0.774457 0.622793,-1.157599 0,-0.383143 0.25729,-0.795356 0.571756,-0.916027 0.314466,-0.120672 1.207809,-0.90944 1.985207,-1.752817 0.777398,-0.843378 1.609634,-1.533414 1.849413,-1.533414 0.239779,0 1.17634,-0.791524 2.081246,-1.758941 0.904906,-0.967418 2.633192,-2.579133 3.840635,-3.581588 1.207444,-1.002456 2.512852,-2.177258 2.900908,-2.610671 0.388055,-0.433413 1.202255,-1.038327 1.809333,-1.344253 0.607077,-0.305926 1.198322,-0.802608 1.313876,-1.103738 0.115554,-0.30113 0.611042,-0.699947 1.101083,-0.88626 0.490042,-0.186314 0.890985,-0.494003 0.890985,-0.683754 0,-0.18975 0.674687,-0.67783 1.499305,-1.084621 2.6728,-1.318516 3.960768,-2.099151 4.361561,-2.643534 0.216046,-0.293448 0.923294,-0.718469 1.571662,-0.944492 0.648368,-0.226022 1.724069,-0.780944 2.390446,-1.23316 0.666376,-0.452215 1.522134,-0.82221 1.901684,-0.82221 0.379549,0 1.111459,-0.233539 1.626465,-0.518976 0.515006,-0.285437 1.619891,-0.690808 2.455299,-0.900824 0.835408,-0.210017 1.779143,-0.685763 2.097189,-1.057213 0.321377,-0.375341 1.277693,-0.78025 2.152706,-0.911467 0.865942,-0.129856 2.127173,-0.611196 2.802734,-1.069644 0.74815,-0.507708 1.742691,-0.833542 2.544218,-0.833542 0.723759,0 2.292436,-0.311958 3.48595,-0.693239 1.193514,-0.381281 3.714507,-0.853563 5.602207,-1.049514 1.887699,-0.195951 4.369564,-0.687774 5.515254,-1.092939 3.476576,-1.229464 28.552766,-1.087348 32.136366,0.182129 1.65434,0.586044 3.23492,0.877248 4.78853,0.882233 1.38812,0.0045 3.44157,0.340897 5.11527,0.838101 1.53791,0.456863 3.66758,0.943614 4.73259,1.081668 1.06502,0.138055 2.4144,0.537183 2.99862,0.886952 0.58421,0.349769 1.60001,0.736546 2.25731,0.859504 0.6573,0.122958 1.56254,0.620033 2.01163,1.10461 0.57063,0.615722 1.18781,0.88105 2.04943,0.88105 0.67809,0 1.97931,0.396875 2.8916,0.881945 0.91229,0.485069 1.91288,0.882757 2.22353,0.883751 0.31065,9.95e-4 1.19982,0.392915 1.97593,0.870935 0.77611,0.47802 1.66432,0.874081 1.9738,0.880137 0.30947,0.0061 0.8504,0.328935 1.20206,0.71751 0.35165,0.388575 2.58329,1.662834 4.95919,2.831687 2.60502,1.28157 4.54529,2.469305 4.88782,2.992066 0.3124,0.476783 0.96705,0.967034 1.45479,1.089447 0.48773,0.122414 1.04693,0.521809 1.24267,0.887546 0.19574,0.365737 0.52013,0.664976 0.72088,0.664976 0.62302,0 3.58031,2.184171 5.47692,4.045093 0.99538,0.976657 2.42413,2.358583 3.175,3.070946 0.75086,0.712363 1.55924,1.506113 1.7964,1.763889 0.23716,0.257775 0.5892,0.627433 0.78233,0.821461 0.69014,0.693364 2.32639,2.629978 3.01981,3.574146 0.38805,0.528383 1.18984,1.448482 1.78175,2.044664 0.59191,0.596182 1.34152,1.480842 1.66581,1.965912 0.32429,0.485069 1.14726,1.675694 1.82883,2.645833 0.68156,0.970139 1.24163,1.959582 1.2446,2.198763 0.003,0.239182 0.40069,0.874182 0.88384,1.411112 1.75499,1.950364 4.766,7.445811 4.766,8.698519 0,0.733427 0.75496,2.331883 1.10136,2.331883 0.1554,0 0.45262,0.674688 0.66049,1.499306 0.20786,0.824618 0.69023,2.151693 1.07193,2.949057 0.3817,0.797363 0.69399,1.685323 0.69399,1.973244 0,0.287922 0.33441,1.461158 0.74312,2.607193 0.52655,1.476444 0.82431,3.474134 1.02169,6.854744 0.15322,2.624075 0.55002,6.647435 0.88178,8.940796 0.68991,4.76911 0.66688,4.83146 -1.87443,5.07565 -2.29336,0.22036 -2.62498,-0.51482 -3.62118,-8.027768 -0.9051,-6.826023 -3.52981,-16.570427 -4.89366,-18.168055 -0.33127,-0.388056 -1.26044,-2.082625 -2.06482,-3.76571 -0.80438,-1.683086 -1.61393,-3.153734 -1.79899,-3.268108 -0.18506,-0.114375 -0.52982,-0.801055 -0.76614,-1.525957 -0.23632,-0.724901 -0.73002,-1.635503 -1.09711,-2.023558 -3.12015,-3.298335 -4.5439,-4.986858 -4.73315,-5.613381 -0.12238,-0.405141 -0.64085,-1.160997 -1.15217,-1.679681 -0.51131,-0.518684 -1.11222,-1.129872 -1.33535,-1.358195 -0.22313,-0.228322 -1.05657,-1.034257 -1.85208,-1.790965 -0.79552,-0.756709 -1.44639,-1.523886 -1.44639,-1.704838 0,-0.180953 -0.30036,-0.424336 -0.66747,-0.540851 -0.3671,-0.116515 -0.74891,-0.523286 -0.84845,-0.903937 -0.0995,-0.38065 -0.47387,-0.80311 -0.83184,-0.9388 -0.67916,-0.257439 -3.29503,-2.814876 -3.29892,-3.225222 -0.001,-0.129688 -0.51281,-0.553296 -1.13686,-0.941352 -4.4869,-2.790103 -5.57656,-3.565556 -6.13937,-4.369091 -0.28746,-0.410403 -0.81981,-0.746187 -1.18301,-0.746187 -0.36319,0 -0.93058,-0.277812 -1.26086,-0.617361 -0.33028,-0.339548 -1.1925,-0.934861 -1.91604,-1.322916 -0.72355,-0.388056 -2.32997,-1.256287 -3.56983,-1.929403 -1.23986,-0.673117 -2.82584,-1.403414 -3.5244,-1.622883 -0.69856,-0.219469 -1.60913,-0.738067 -2.02351,-1.15244 -0.41437,-0.414373 -1.38084,-0.853735 -2.1477,-0.976362 -0.76686,-0.122626 -1.47422,-0.431245 -1.57191,-0.68582 -0.0977,-0.254576 -0.94093,-0.57435 -1.87386,-0.71061 -0.93294,-0.136259 -2.40936,-0.623623 -3.28094,-1.08303 -0.87158,-0.459407 -2.15772,-0.835285 -2.85809,-0.835285 -0.91786,0 -1.56631,-0.279916 -2.32245,-1.002521 -0.80052,-0.765027 -1.52822,-1.05884 -3.07179,-1.240256 -1.11251,-0.130753 -2.41748,-0.496377 -2.89994,-0.812496 -0.65237,-0.427449 -1.98069,-0.610549 -5.18262,-0.714389 -2.36798,-0.0768 -4.86104,-0.288087 -5.54014,-0.469537 -3.55811,-0.950704 -20.58209,-1.321866 -24.89929,-0.542861 -1.730596,0.312272 -4.72572,0.736915 -6.655834,0.943652 -1.930114,0.206736 -4.277553,0.678702 -5.216531,1.048813 -0.938979,0.37011 -2.352039,0.672928 -3.140135,0.672928 -1.142942,0 -1.636613,0.218073 -2.439584,1.077656 -0.553674,0.592711 -1.212679,1.050152 -1.464454,1.016535 -1.13863,-0.152027 -1.998508,0.07555 -2.750828,0.728031 -0.447432,0.388056 -0.908285,0.71627 -1.024118,0.729364 -2.073585,0.234417 -2.826796,0.443873 -3.577307,0.994795 -0.493492,0.362253 -1.554805,0.769734 -2.358473,0.905513 -0.937537,0.158396 -1.646334,0.529399 -1.977752,1.035207 -0.284095,0.433584 -1.151042,0.978438 -1.926548,1.210785 -0.775506,0.232347 -1.493139,0.639079 -1.59474,0.903848 -0.101602,0.264769 -0.731235,0.583923 -1.399186,0.709232 -0.66795,0.125308 -1.498978,0.542228 -1.84673,0.926489 -0.347751,0.384261 -0.830775,0.698656 -1.073387,0.698656 -0.242613,0 -1.130821,0.55301 -1.973796,1.228912 -0.842976,0.675901 -1.850183,1.464162 -2.238239,1.751689 -2.71711,2.013227 -6.16681,5.216057 -6.181234,5.738889 -0.0042,0.151989 -0.581556,0.752593 -1.283029,1.334676 -2.671297,2.216647 -6.11768,6.207438 -6.11768,7.08406 0,0.25336 -0.29792,0.669326 -0.662045,0.924369 -1.21351,0.849975 -3.218429,3.513566 -3.224605,4.283976 -0.0034,0.418205 -0.400227,1.134222 -0.881944,1.59115 -0.481717,0.456928 -0.875849,1.112177 -0.875849,1.45611 0,0.343933 -0.249728,0.832588 -0.554951,1.0859 -0.305223,0.253312 -0.849245,1.037433 -1.208938,1.74249 -0.359693,0.705057 -0.887109,1.475396 -1.172035,1.711864 -0.284926,0.236467 -0.625773,1.019597 -0.757437,1.740288 -0.131664,0.720692 -0.462846,1.657487 -0.73596,2.081768 -0.273114,0.424282 -0.667797,1.535468 -0.877074,2.469303 -0.209277,0.933836 -0.675596,2.015446 -1.036264,2.40358 -0.360669,0.388133 -0.769596,1.340697 -0.908729,2.116808 -0.139132,0.776111 -0.628237,2.124223 -1.086901,2.995804 -0.458663,0.871581 -0.840234,2.141581 -0.847935,2.822222 -0.0077,0.680641 -0.24316,2.428154 -0.52324,3.883363 -0.861893,4.478112 -1.167466,6.746341 -1.378249,10.230551 -0.133743,2.21075 -0.352565,3.40122 -0.642934,3.49781 -0.242102,0.0805 -0.862021,0.59748 -1.377598,1.1488 -0.515576,0.55131 -1.424828,1.09987 -2.02056,1.21902 -0.595732,0.11914 -1.264897,0.43562 -1.487033,0.70328 -0.222137,0.26766 -0.572653,0.48665 -0.778925,0.48665 -0.206272,0 -0.731929,0.33528 -1.168128,0.74507 -0.793089,0.74507 -0.793089,0.74507 -1.032206,-0.52954 z"
         id="path1237" /><path
         style="fill:url(#linearGradient1515);fill-opacity:1"
         d="m 196.09213,106.77774 c -0.64246,-0.81348 -1.46272,-3.99136 -1.83727,-7.11802 -0.20918,-1.74625 -0.6669,-3.730625 -1.01714,-4.409723 -0.35024,-0.679097 -0.74383,-2.028472 -0.87464,-2.998611 -0.13081,-0.970138 -0.6307,-2.835451 -1.11088,-4.145138 -0.48017,-1.309688 -1.29852,-3.532188 -1.81854,-4.938889 -0.52003,-1.406701 -1.28383,-3.033889 -1.69733,-3.615972 -0.41351,-0.582084 -0.96135,-1.578033 -1.21743,-2.213221 -0.25608,-0.635188 -0.66482,-1.270188 -0.90832,-1.411111 -0.24349,-0.140923 -1.02691,-1.406554 -1.74093,-2.812513 -0.88333,-1.739354 -1.85446,-3.025329 -3.03879,-4.023972 -0.95733,-0.807226 -1.74348,-1.641271 -1.74701,-1.853433 -0.0103,-0.619375 -2.02416,-3.420958 -3.23822,-4.504873 -0.95514,-0.852746 -1.41336,-0.996155 -3.18295,-0.996155 -2.92574,0 -7.25059,-2.48333 -8.11502,-4.659649 -0.14031,-0.353253 -0.61656,-0.799349 -1.05833,-0.991322 -0.44177,-0.191974 -1.5176,-0.906296 -2.39072,-1.587382 -0.87313,-0.681087 -2.06375,-1.462845 -2.64584,-1.737241 -0.58208,-0.274396 -1.33459,-0.827765 -1.67224,-1.229709 -0.33765,-0.401944 -0.84541,-0.730807 -1.12835,-0.730807 -0.28294,0 -0.94794,-0.401752 -1.47777,-0.892781 -0.52983,-0.491029 -1.64926,-1.0655 -2.48762,-1.276602 -0.83836,-0.211102 -1.52429,-0.498598 -1.52429,-0.638879 0,-0.140282 -0.63466,-0.445205 -1.41035,-0.677608 -0.77569,-0.232403 -1.70629,-0.740208 -2.068,-1.128456 -0.36171,-0.388247 -1.27486,-0.803629 -2.02924,-0.923071 -0.75437,-0.119442 -1.70949,-0.576648 -2.1225,-1.016013 -0.4795,-0.510108 -1.37207,-0.887267 -2.46944,-1.043477 -0.94519,-0.134547 -2.62633,-0.54404 -3.73587,-0.909983 -1.10954,-0.365944 -2.80294,-0.665352 -3.76311,-0.665352 -0.96018,0 -2.4756,-0.312838 -3.3676,-0.695195 -3.06745,-1.314862 -24.02354,-2.079831 -29.12833,-1.063285 -0.873127,0.173871 -2.619377,0.553185 -3.880557,0.84292 -1.261181,0.289736 -3.086805,0.700056 -4.056944,0.911822 -0.970139,0.211766 -2.081389,0.566857 -2.469444,0.78909 -0.388056,0.222234 -1.564845,0.523134 -2.615088,0.668666 -1.3392,0.185573 -2.146136,0.51977 -2.701704,1.118925 -0.457436,0.493324 -1.382394,0.948701 -2.188971,1.077678 -1.801969,0.288147 -9.272756,3.582086 -9.549017,4.21025 -0.0668,0.151881 -1.098671,0.725612 -2.293055,1.274956 -2.32062,1.067344 -6.582508,4.330654 -9.607645,7.356533 -1.018396,1.018646 -2.018505,1.852084 -2.222466,1.852084 -0.203961,0 -0.554568,0.343303 -0.779128,0.762896 -0.224559,0.419593 -1.738269,2.0662 -3.3638,3.659126 -1.625531,1.592927 -2.955511,3.130019 -2.955511,3.415761 0,0.285742 -0.3175,0.806864 -0.705555,1.15805 -0.388056,0.351185 -0.705556,0.844151 -0.705556,1.09548 0,0.251328 -0.265976,0.605808 -0.591058,0.787733 -1.094734,0.612644 -5.053386,7.158908 -5.053386,8.356582 0,0.15839 -0.221806,0.538607 -0.492903,0.844926 -0.931492,1.052517 -2.930641,5.18244 -3.181851,6.573196 -0.138297,0.765645 -0.62397,2.586005 -1.079271,4.045245 -0.455302,1.459239 -0.932859,3.999239 -1.061237,5.644444 -0.342087,4.38394 -0.54914,4.74534 -3.559754,6.21338 -3.522456,1.71763 -4.693225,-4.857133 -2.269879,-12.747098 0.357565,-1.164167 0.754687,-3.148542 0.882494,-4.409722 0.127806,-1.261181 0.458148,-2.543285 0.734092,-2.84912 0.275945,-0.305836 0.636303,-1.276464 0.800796,-2.156951 0.164493,-0.880488 0.720476,-2.153368 1.235518,-2.828623 0.515042,-0.675256 0.936441,-1.324765 0.936441,-1.443355 0,-0.11859 0.396875,-0.800446 0.881944,-1.515235 0.485069,-0.71479 0.881944,-1.525593 0.881944,-1.801784 0,-0.619712 2.117472,-5.088488 2.640688,-5.572987 0.560699,-0.519209 3.003756,-4.237346 3.003756,-4.571476 0,-0.157578 0.357188,-0.638945 0.79375,-1.069704 1.03632,-1.022543 3.69761,-4.109354 5.553495,-6.441459 0.810637,-1.018645 1.593646,-1.852083 1.740022,-1.852083 0.146375,0 1.204433,-0.876405 2.35124,-1.947566 1.146806,-1.071161 2.77128,-2.460224 3.60994,-3.086805 0.838661,-0.626582 2.533505,-1.972677 3.76632,-2.991323 1.232815,-1.018646 2.498541,-1.852083 2.812725,-1.852083 0.314184,0 0.962403,-0.391161 1.440488,-0.869246 0.478085,-0.478085 1.463057,-1.036285 2.188826,-1.240445 0.725769,-0.20416 1.627734,-0.60675 2.004367,-0.894644 0.376633,-0.287894 0.950117,-0.523443 1.274408,-0.523443 0.324292,0 1.166548,-0.458484 1.87168,-1.018853 0.705133,-0.560369 1.82226,-1.120195 2.482505,-1.244057 0.660245,-0.123863 1.394585,-0.459129 1.631867,-0.745037 0.237282,-0.285907 0.6236,-0.519831 0.858484,-0.519831 0.234884,0 1.842634,-0.45211 3.572776,-1.00469 1.730142,-0.55258 4.158375,-1.107911 5.396072,-1.234069 1.339949,-0.136581 2.745542,-0.535419 3.474358,-0.985852 0.75517,-0.466721 2.190337,-0.862581 3.746864,-1.033493 1.387574,-0.152361 4.81068,-0.691568 7.60691,-1.198239 3.9595,-0.717453 5.7152,-0.875901 7.9375,-0.716339 1.5694,0.112683 4.04408,0.06089 5.49928,-0.115094 1.45521,-0.175985 2.80459,-0.204291 2.99861,-0.0629 0.74735,0.544591 5.48068,1.41446 9.70139,1.782873 3.37811,0.294865 4.82237,0.583889 6.17361,1.235452 0.97014,0.467798 2.71639,0.998666 3.88056,1.179707 1.16416,0.181042 2.59291,0.579722 3.175,0.885956 0.58208,0.306234 1.56956,0.557767 2.1944,0.558962 0.62484,0.0012 1.97422,0.383797 2.99861,0.850224 1.0244,0.466428 2.51202,1.021384 3.30582,1.233235 0.79381,0.211851 1.73123,0.703353 2.08315,1.092227 0.35193,0.388874 0.89308,0.708955 1.20255,0.711292 0.30948,0.0023 1.25358,0.399213 2.098,0.881945 0.84443,0.482732 1.70089,0.877695 1.90326,0.877695 0.54342,0 5.47808,2.419585 5.61571,2.753519 0.18344,0.445106 3.89486,2.780691 4.88044,3.071245 0.48507,0.143001 1.16594,0.557805 1.51305,0.921786 0.3471,0.363981 0.79287,0.661783 0.99059,0.661783 0.19772,0 1.02755,0.674688 1.84407,1.499306 0.81651,0.824618 2.19637,2.045143 3.06635,2.712279 2.44179,1.872469 8.35516,7.950128 8.64629,8.886508 0.14307,0.460146 1.0727,1.66828 2.06586,2.684742 2.68002,2.742923 2.80574,2.915897 4.26354,5.866268 0.73919,1.49599 1.63951,2.878147 2.00072,3.071462 0.36121,0.193314 0.65675,0.561721 0.65675,0.818682 0,0.256961 0.46232,1.402313 1.02739,2.545227 1.84561,3.732986 2.45102,5.230923 2.69339,6.664136 0.13124,0.776111 0.59598,2.046111 1.03276,2.822222 0.43677,0.776111 0.90428,2.271193 1.03891,3.322404 0.13463,1.051212 0.50115,2.479961 0.81448,3.175 1.17914,2.615554 1.07731,12.923669 -0.1337,13.533979 -1.44791,0.7297 -3.54094,0.99148 -3.93526,0.49219 z"
         id="path1238" /><path
         style="fill:url(#linearGradient1516);fill-opacity:1"
         d="m 185.27014,108.87979 c -0.0644,-0.22034 -0.29933,-2.02532 -0.52214,-4.01105 -0.22281,-1.98573 -0.62998,-4.2876 -0.90483,-5.115274 -0.27484,-0.827672 -0.65719,-2.516141 -0.84965,-3.752154 -0.19246,-1.236013 -0.57299,-2.587716 -0.84561,-3.003785 -0.27261,-0.416069 -0.61299,-1.309786 -0.75637,-1.986037 -0.14339,-0.676251 -0.54184,-1.705798 -0.88543,-2.287881 -0.34359,-0.582084 -0.82475,-1.693334 -1.06924,-2.469445 -0.2445,-0.776111 -0.71917,-1.807986 -1.05484,-2.293055 -0.33567,-0.48507 -0.73281,-1.27882 -0.88255,-1.763889 -0.31238,-1.011997 -1.33052,-2.459768 -2.73074,-3.88306 -0.53357,-0.54237 -0.97014,-1.099915 -0.97014,-1.238989 0,-0.260408 -1.21731,-1.813769 -3.24981,-4.146953 -0.63795,-0.732327 -2.12794,-1.965547 -3.31109,-2.740489 -1.18314,-0.774943 -2.32868,-1.798575 -2.54564,-2.274738 -0.21695,-0.476163 -0.79673,-0.966715 -1.2884,-1.090116 -0.49167,-0.1234 -0.89394,-0.342176 -0.89394,-0.486167 0,-0.300579 -3.49754,-2.537771 -4.11245,-2.630516 -0.22455,-0.03387 -0.88355,-0.570368 -1.46445,-1.19222 -0.5809,-0.621852 -1.293,-1.13064 -1.58245,-1.13064 -0.28945,0 -0.61424,-0.229238 -0.72176,-0.509418 -0.10751,-0.28018 -0.87856,-0.703085 -1.71344,-0.939789 -0.83487,-0.236704 -1.6767,-0.60802 -1.87073,-0.825146 -0.19403,-0.217127 -1.02746,-0.613381 -1.85208,-0.880566 -0.82462,-0.267184 -1.49931,-0.691044 -1.49931,-0.941909 0,-0.415845 -2.00558,-1.188117 -3.09787,-1.192871 -0.24863,-0.0011 -0.54009,-0.23141 -0.6477,-0.511839 -0.21736,-0.56641 -4.63899,-2.350294 -7.95609,-3.209842 -1.18058,-0.305918 -2.51482,-0.797545 -2.96498,-1.092504 -0.45017,-0.294959 -2.13652,-0.664551 -3.74745,-0.821315 -1.66739,-0.162259 -3.46078,-0.567878 -4.16368,-0.941719 -1.78723,-0.950545 -22.6285,-1.197336 -25.07801,-0.29696 -2.439332,0.896636 -3.542733,1.187259 -5.391903,1.420168 -1.174964,0.14799 -1.968831,0.486539 -2.509897,1.07036 -0.588557,0.635063 -1.160999,0.853906 -2.233626,0.853906 -1.687492,0 -3.23934,0.618637 -3.23934,1.291348 0,0.317143 -0.470207,0.47254 -1.429827,0.47254 -0.943858,0 -1.870957,0.299755 -2.727725,0.881945 -0.713844,0.485069 -1.506752,0.881944 -1.762017,0.881944 -0.255266,0 -0.813727,0.37342 -1.241025,0.829821 -0.427298,0.456401 -1.370007,1.023608 -2.094908,1.260459 -0.724902,0.236851 -1.410445,0.580212 -1.523429,0.763024 -0.112984,0.182813 -0.710508,0.56936 -1.32783,0.858994 -1.08638,0.509707 -3.321409,1.984398 -3.851549,2.541287 -0.142835,0.150042 -0.79658,0.868116 -1.452766,1.595721 -0.656186,0.727604 -1.352883,1.322916 -1.548216,1.322916 -0.412468,0 -3.116136,2.623839 -4.14765,4.025187 -0.388055,0.527186 -1.023055,1.303982 -1.411111,1.726212 -1.849368,2.012234 -5.114992,6.800647 -6.422963,9.418045 -0.33936,0.679097 -0.977709,1.683465 -1.418555,2.231928 -0.440845,0.548463 -0.801536,1.153607 -0.801536,1.344763 0,0.191156 -0.389056,1.171163 -0.864568,2.177794 -0.475512,1.00663 -1.096507,2.703362 -1.37999,3.770515 -0.283483,1.067153 -0.752445,2.495903 -1.042138,3.175 -0.289692,0.679097 -0.640936,2.000219 -0.780542,2.935826 -0.208996,1.40065 -0.417428,1.762096 -1.1801,2.046427 -0.50945,0.189928 -1.488211,0.6348 -2.175024,0.988605 -4.310477,2.220491 -6.742278,-1.320015 -4.163715,-6.062042 0.236494,-0.434918 0.63134,-1.743261 0.877435,-2.907427 0.739499,-3.498251 2.694417,-8.884452 4.033272,-11.1125 0.17489,-0.291042 0.625541,-1.095411 1.001447,-1.787489 0.375907,-0.692077 0.916115,-1.451403 1.200463,-1.687391 0.284348,-0.235987 0.726752,-0.939742 0.98312,-1.5639 0.841167,-2.047917 2.70067,-4.667201 4.636867,-6.531463 0.533576,-0.513752 0.970139,-1.10458 0.970139,-1.312952 0,-0.737158 2.799802,-3.828591 5.26556,-5.814027 0.602419,-0.485069 1.366267,-1.159757 1.697441,-1.499305 0.331174,-0.339549 0.793457,-0.617361 1.027295,-0.617361 0.233838,0 0.737342,-0.396875 1.118898,-0.881945 0.381555,-0.485069 0.857805,-0.881944 1.058333,-0.881944 0.200528,0 0.659825,-0.375323 1.020661,-0.834052 0.360836,-0.458729 1.137983,-1.083261 1.726993,-1.38785 0.58901,-0.304589 1.268772,-0.792186 1.510582,-1.08355 0.24181,-0.291363 0.888474,-0.628329 1.437031,-0.748812 0.548557,-0.120483 1.276567,-0.527563 1.6178,-0.90462 0.341232,-0.377058 0.812535,-0.68556 1.047338,-0.68556 0.234804,0 0.805512,-0.288521 1.268241,-0.641157 0.462728,-0.352636 1.39695,-0.859337 2.076047,-1.126003 0.679097,-0.266666 1.790347,-0.834506 2.469444,-1.261867 0.679097,-0.427361 1.869722,-0.886592 2.645833,-1.020513 0.776111,-0.133921 1.662241,-0.468643 1.969178,-0.743826 0.306937,-0.275183 1.497562,-0.668322 2.645833,-0.873642 1.148271,-0.205319 3.119641,-0.679391 4.380821,-1.053492 8.367343,-2.481984 7.833209,-2.395451 16.227778,-2.629019 9.68967,-0.269602 17.50862,0.186547 21.51944,1.255422 0.6791,0.180978 1.9491,0.333723 2.82222,0.339434 2.10045,0.01374 4.07778,0.493153 4.7319,1.147276 0.29119,0.291188 1.51728,0.703439 2.72465,0.916112 1.20736,0.212674 2.29035,0.540617 2.40663,0.728764 0.11628,0.188146 1.58169,0.80815 3.25647,1.377786 1.67478,0.569636 3.90912,1.609232 4.96519,2.310213 1.05607,0.700982 2.14333,1.274512 2.41612,1.274512 0.27279,0 0.68177,0.297491 0.90885,0.661092 0.22707,0.363601 0.85382,0.771768 1.39278,0.907038 0.53895,0.135269 1.3655,0.631527 1.83677,1.102796 0.47127,0.471268 1.01589,0.856851 1.21027,0.856851 0.19437,0 1.01266,0.595313 1.81841,1.322917 1.39485,1.259574 5.36312,4.257745 7.10949,5.371468 0.44913,0.286426 0.90604,0.877156 1.01536,1.312734 0.10933,0.435578 0.55269,0.981369 0.98525,1.212869 0.43256,0.231499 1.23665,0.871082 1.78686,1.421293 1.05781,1.057815 1.95627,1.239792 3.09973,0.62783 0.56199,-0.300768 0.90262,-0.198803 1.76776,0.529166 0.5894,0.495948 1.17852,0.902727 1.30916,0.903953 0.13063,0.0012 0.55501,0.512818 0.94307,1.136869 1.55152,2.495071 2.16129,3.428094 3.175,4.858123 1.37491,1.939574 2.5341,3.835072 3.02036,4.938889 0.21369,0.485069 0.7657,1.675694 1.22669,2.645833 0.461,0.970139 0.94047,2.160764 1.06551,2.645833 0.12504,0.48507 0.58715,1.675695 1.02691,2.645834 1.2946,2.855988 1.92791,5.182133 2.47826,9.1027 0.28485,2.029205 0.75895,4.614893 1.05356,5.745973 1.02246,3.92549 0.7624,6.34284 -0.78726,7.318 -1.47735,0.92965 -4.65449,1.46201 -4.84444,0.81173 z"
         id="path1239" /><path
         style="fill:url(#linearGradient1517);fill-opacity:1"
         d="m 159.1282,113.95204 c -0.7644,-0.4959 -2.17358,-0.81748 -4.73323,-1.08015 -2.00462,-0.20572 -3.92038,-0.52153 -4.25724,-0.70182 -0.33686,-0.18028 -2.03742,-0.57369 -3.77901,-0.87424 -1.74159,-0.30055 -3.79172,-0.84851 -4.55585,-1.2177 -0.76413,-0.36918 -1.81518,-0.77813 -2.33568,-0.90877 -0.5205,-0.13063 -0.94636,-0.37008 -0.94636,-0.53211 0,-0.16202 -0.47625,-0.57591 -1.05833,-0.91976 -1.20434,-0.71142 -1.36369,-1.1786 -0.40201,-1.1786 0.36098,0 1.23822,-0.39489 1.94942,-0.87752 0.71121,-0.48264 1.67418,-0.97316 2.13994,-1.09006 2.46418,-0.61847 2.6549,-5.458117 0.349,-8.856054 -0.47374,-0.698099 -0.86135,-1.54321 -0.86135,-1.878023 0,-0.334814 -0.32173,-1.017757 -0.71494,-1.517653 -0.39322,-0.499895 -0.93513,-1.435875 -1.20424,-2.079954 -0.97314,-2.329047 -5.47388,-6.687602 -8.62512,-8.352642 -0.50654,-0.267643 -1.23848,-0.757202 -1.62653,-1.087909 -3.83527,-3.268472 -14.56739,-4.275809 -17.4625,-1.639064 -1.13105,1.030108 -3.05778,2.121824 -4.70303,2.664805 -0.71181,0.234917 -1.29419,0.56849 -1.29419,0.741274 0,0.172784 -0.38217,0.51766 -0.84926,0.766391 -1.08637,0.578507 -6.559076,7.193424 -6.559076,7.928022 0,0.305154 -0.322773,1.077084 -0.717274,1.715399 -0.3945,0.638315 -0.948278,2.367927 -1.230617,3.843583 -0.846048,4.421895 -1.665973,5.433815 -3.453699,4.262455 -0.434861,-0.28493 -1.818338,-0.74378 -3.074394,-1.01967 -1.256055,-0.275881 -3.236237,-0.744677 -4.400404,-1.041767 -1.164166,-0.297089 -3.783541,-0.647026 -5.820832,-0.777637 -2.037292,-0.130611 -4.259792,-0.47254 -4.938889,-0.759842 -0.679097,-0.287302 -3.298472,-0.711061 -5.820832,-0.941687 -5.284659,-0.483189 -5.519898,-0.712086 -4.079137,-3.969167 0.400262,-0.904857 0.727748,-1.843702 0.727748,-2.086321 0,-0.24262 0.250509,-0.64903 0.556686,-0.903135 0.507945,-0.421557 1.131558,-1.470202 3.14748,-5.292692 0.603404,-1.144144 1.27336,-1.957384 3.322494,-4.03308 0.191545,-0.194027 0.951093,-1.010573 1.687885,-1.814545 1.741854,-1.900677 6.417704,-5.770177 6.972602,-5.770177 0.237202,0 0.710467,-0.308502 1.0517,-0.68556 0.341233,-0.377058 1.063751,-0.782931 1.605595,-0.90194 0.541845,-0.119009 1.264363,-0.524882 1.605596,-0.90194 0.341233,-0.377058 0.835389,-0.68556 1.098124,-0.68556 0.262736,0 0.976052,-0.47625 1.585146,-1.058333 0.609094,-0.582083 1.441087,-1.06182 1.848872,-1.066081 0.407786,-0.0043 1.455803,-0.334281 2.328928,-0.733378 2.009366,-0.918462 8.706338,-2.639438 11.401988,-2.930066 1.12936,-0.12176 3.02901,-0.632018 4.22144,-1.133906 2.89125,-1.216911 11.1488,-1.131977 14.25845,0.146656 1.00983,0.415223 2.91483,0.853804 4.23334,0.974624 1.3185,0.120819 3.31072,0.522855 4.42715,0.893411 2.24436,0.744927 5.02683,0.889911 5.40284,0.281521 0.34806,-0.563183 -0.36791,-0.89864 -2.44213,-1.144212 -0.99857,-0.118223 -1.97433,-0.429959 -2.16836,-0.692747 -0.59448,-0.805157 -1.67018,-1.215943 -3.88056,-1.481898 -1.16416,-0.140075 -2.67229,-0.502584 -3.35138,-0.805575 -2.19211,-0.978047 -16.86261,-1.054051 -19.57306,-0.101403 -1.15408,0.405624 -2.73882,0.738384 -3.52166,0.739466 -1.973918,0.0027 -3.844975,0.576689 -4.600128,1.411124 -0.378073,0.417766 -1.085789,0.703575 -1.742181,0.703575 -0.608,0 -1.687929,0.296963 -2.399844,0.659918 -0.711914,0.362955 -2.041299,0.847991 -2.954189,1.07786 -0.912889,0.229868 -2.052264,0.726655 -2.531943,1.103971 -0.47968,0.377316 -1.067032,0.686029 -1.305228,0.686029 -0.238195,0 -1.002516,0.436563 -1.698491,0.970139 -0.695974,0.533576 -1.928316,1.367014 -2.738537,1.852083 -3.531691,2.11438 -4.981749,3.158428 -6.889402,4.9604 -3.807148,3.596238 -5.606943,5.488295 -6.489779,6.822462 -0.485069,0.733052 -1.304823,1.729591 -1.821674,2.214532 -0.516852,0.484941 -1.042631,1.291696 -1.168397,1.792789 -0.125766,0.501092 -0.536325,1.302203 -0.912352,1.780244 -0.376028,0.478042 -0.683687,1.134417 -0.683687,1.45861 0,0.324194 -0.380054,1.104577 -0.844565,1.734186 -0.46451,0.629609 -1.015905,1.825197 -1.225321,2.656864 -0.595125,2.363455 -1.726157,3.248788 -4.51548,3.534563 -3.155635,0.323304 -3.60116,-0.06988 -2.820665,-2.489325 0.303605,-0.941137 0.654521,-2.294157 0.779814,-3.006711 0.125293,-0.712553 0.609323,-2.049145 1.075623,-2.970204 0.466299,-0.921059 0.847817,-2.036223 0.847817,-2.478142 0,-0.441919 0.396875,-1.549909 0.881944,-2.462199 0.485069,-0.91229 0.892484,-1.833503 0.905365,-2.047139 0.01288,-0.213637 0.56708,-1.102805 1.231551,-1.97593 1.248634,-1.640723 1.745835,-2.35916 3.295931,-4.7625 0.500573,-0.776111 2.002017,-2.517839 3.336543,-3.870506 1.334526,-1.352667 2.823923,-2.980561 3.309771,-3.617541 0.485849,-0.63698 1.697418,-1.74568 2.692377,-2.463778 0.994959,-0.718099 2.126516,-1.595422 2.514571,-1.949609 1.766568,-1.612385 3.308398,-2.738994 3.750738,-2.740651 0.265427,-9.94e-4 1.117595,-0.392914 1.893706,-0.870934 0.776111,-0.47802 1.667276,-0.874082 1.980366,-0.880137 0.31309,-0.0061 0.953834,-0.395589 1.423874,-0.865629 0.470041,-0.470041 1.523563,-1.122278 2.341161,-1.449416 0.817599,-0.327138 1.486543,-0.815684 1.486543,-1.085659 0,-0.331354 0.429887,-0.492103 1.322916,-0.49468 0.727604,-0.0021 2.116667,-0.247212 3.086805,-0.544692 0.970139,-0.29748 3.351389,-0.76744 5.291666,-1.044355 1.940278,-0.276916 4.400901,-0.785867 5.468051,-1.131003 2.76402,-0.893933 18.42592,-0.899352 20.72319,-0.0072 0.82324,0.319718 3.52199,0.841885 5.99722,1.160371 2.47523,0.318485 5.05605,0.815835 5.73515,1.105221 2.05919,0.877493 6.13746,2.224261 6.74339,2.226876 0.31338,0.0014 0.96651,0.314524 1.4514,0.695936 0.48489,0.381412 1.63182,0.948178 2.54873,1.259479 0.91692,0.311301 2.8566,1.269237 4.31039,2.128746 1.4538,0.859509 2.80763,1.562743 3.00852,1.562743 0.20089,0 0.90767,0.47625 1.57063,1.058334 0.66295,0.582083 1.35362,1.058333 1.5348,1.058333 0.58997,0 4.62829,2.938123 5.58901,4.066339 0.5149,0.604667 1.65055,1.607519 2.52368,2.228559 0.87312,0.62104 2.06375,1.699919 2.64583,2.397509 0.58208,0.697589 1.63731,1.856047 2.34494,2.574352 0.70763,0.718304 1.89825,2.226726 2.64583,3.352049 0.74758,1.125323 1.62484,2.446724 1.94946,2.936447 0.32463,0.489723 0.73865,0.986694 0.92005,1.10438 0.44016,0.28557 2.89944,5.443857 2.89944,6.081526 0,0.276016 0.23144,0.832265 0.5143,1.236108 0.28286,0.403843 0.82071,2.145728 1.19521,3.870856 0.37451,1.725128 0.92986,3.771596 1.23411,4.547708 0.30426,0.776111 0.56404,2.28423 0.5773,3.35139 0.0133,1.06715 0.17028,2.57528 0.34895,3.35139 1.13575,4.93378 0.50718,6.17361 -3.12992,6.17361 -1.67178,0 -1.67178,0 -2.07223,-2.57577 -0.42584,-2.73915 -1.70317,-7.59296 -3.10607,-11.803048 -0.46932,-1.408418 -0.85391,-2.757793 -0.85464,-2.998611 -7.3e-4,-0.240818 -0.47638,-1.39035 -1.05701,-2.554517 -0.58062,-1.164166 -1.05627,-2.323526 -1.057,-2.576355 -7.3e-4,-0.252829 -0.39821,-1.043742 -0.88327,-1.757586 -0.48507,-0.713844 -0.88195,-1.478938 -0.88195,-1.700208 0,-0.22127 -0.79375,-1.395278 -1.76389,-2.608906 -0.97014,-1.213628 -1.76389,-2.419286 -1.76389,-2.67924 0,-0.259955 -1.19053,-1.67873 -2.64562,-3.152834 -1.45509,-1.474105 -2.80372,-2.975601 -2.99695,-3.336659 -0.19323,-0.361057 -1.13688,-1.165484 -2.09699,-1.787614 -0.96011,-0.622131 -1.829,-1.348335 -1.93086,-1.613789 -0.10187,-0.265453 -0.42786,-0.482642 -0.72443,-0.482642 -0.29657,0 -1.13499,-0.515937 -1.86316,-1.146527 -2.46106,-2.131282 -3.65341,-2.838709 -4.07464,-2.417487 -0.53967,0.539672 0.89218,3.430447 1.84969,3.734349 1.19295,0.378628 0.82083,0.887999 -0.64874,0.887999 -0.83962,0 -1.44568,-0.188454 -1.55944,-0.484904 -0.10234,-0.266697 -0.91307,-0.593924 -1.80163,-0.727171 -0.88856,-0.133247 -1.61556,-0.391291 -1.61556,-0.57343 0,-0.749198 -1.4634,-1.742273 -2.56743,-1.742273 -0.71976,0 -1.3844,-0.266375 -1.76043,-0.705556 -0.59817,-0.698601 -1.79918,-0.904343 -2.8732,-0.4922 -0.89788,0.344546 -0.30831,0.786595 1.38845,1.04104 1.21652,0.182428 1.57928,0.386842 1.57928,0.889915 0,0.760992 0.72533,1.19874 2.52358,1.523018 0.70887,0.12783 1.37283,0.451256 1.47547,0.718724 0.10263,0.267468 0.65365,0.588885 1.22448,0.71426 0.57082,0.125374 1.40297,0.616594 1.84922,1.091598 0.44624,0.475005 1.07657,0.863645 1.40073,0.863645 0.32417,0 0.87333,0.313757 1.22038,0.697237 0.67767,0.748812 1.41342,0.610454 1.09981,-0.206817 -1.10533,-2.880443 1.95847,-2.929555 4.42906,-0.071 1.03785,1.200821 2.64105,2.971851 3.56268,3.935621 0.92164,0.963771 1.6757,1.903052 1.6757,2.087291 0,0.370551 1.30109,2.071037 2.62856,3.435443 0.47194,0.485069 0.96228,1.311995 1.08964,1.837613 0.12737,0.525618 0.44601,1.133629 0.70809,1.351136 0.26208,0.217507 0.66345,0.978081 0.89193,1.690165 0.22848,0.712083 0.62429,1.535167 0.87957,1.829075 0.25528,0.293908 0.61307,1.197195 0.79509,2.007304 0.18202,0.810109 0.65429,1.884 1.0495,2.386423 0.3952,0.502424 0.83048,1.583512 0.96728,2.402418 0.1368,0.818907 0.56619,2.282671 0.95419,3.25281 1.46465,3.66208 1.33428,13.29866 -0.19209,14.19924 -2.8921,1.70637 -3.51133,1.36257 -3.97103,-2.20479 -0.22503,-1.74625 -0.66177,-3.73063 -0.97054,-4.40973 -0.30877,-0.67909 -0.65786,-2.12904 -0.77577,-3.2221 -0.13992,-1.29719 -0.51362,-2.393 -1.07606,-3.15534 -0.47393,-0.642384 -0.86169,-1.412658 -0.86169,-1.711727 0,-0.497004 -0.4409,-1.529599 -2.3334,-5.464956 -1.52346,-3.167969 -2.26532,-4.437541 -2.59301,-4.437541 -0.19093,0 -0.61168,-0.515938 -0.935,-1.146528 -0.89651,-1.748495 -2.09416,-3.052879 -5.03457,-5.48325 -1.47728,-1.221031 -3.20545,-2.649781 -3.84037,-3.175 -0.63492,-0.525219 -1.50173,-1.272444 -1.92625,-1.6605 -0.42452,-0.388055 -1.17504,-0.868542 -1.66782,-1.067747 -1.25703,-0.508148 -3.03896,-1.585624 -4.50596,-2.724614 -0.68724,-0.533576 -1.51436,-0.970139 -1.83804,-0.970139 -0.32368,0 -1.11776,-0.390471 -1.76463,-0.867714 -0.64686,-0.477243 -1.90802,-0.972912 -2.80256,-1.101488 -0.89455,-0.128575 -1.89253,-0.466469 -2.21775,-0.750875 -0.32521,-0.284406 -1.59521,-0.602542 -2.82222,-0.706967 -1.51982,-0.129347 -2.47306,-0.409944 -2.99057,-0.880316 -1.20858,-1.098478 -2.97634,-1.312061 -11.23479,-1.357397 -8.08232,-0.04437 -9.29476,0.07723 -10.75972,1.079166 -0.48507,0.331753 -1.57961,0.711028 -2.43231,0.842833 -0.8527,0.131806 -1.980106,0.545651 -2.505347,0.919656 -0.525242,0.374005 -1.70294,0.84763 -2.617107,1.052499 -0.914167,0.204869 -2.00926,0.592107 -2.433542,0.860528 -0.424281,0.268422 -1.267785,0.591312 -1.874455,0.717535 -0.606669,0.126222 -1.629698,0.618055 -2.273398,1.092962 -0.6437,0.474907 -1.373987,0.863467 -1.62286,0.863467 -0.248873,0 -0.69266,0.357188 -0.986194,0.79375 -0.293533,0.436563 -1.361887,1.27 -2.374118,1.852083 -3.629118,2.086923 -12.898752,12.181542 -12.458821,13.56764 0.533483,1.680858 2.598279,1.133744 4.422997,-1.171971 4.525368,-5.71826 5.672947,-7.0126 7.752375,-8.743809 3.136571,-2.611325 4.879895,-3.786156 8.535034,-5.751785 0.910727,-0.489763 1.783852,-1.098573 1.940277,-1.352911 0.282674,-0.45961 2.74675,-1.295743 6.458019,-2.191394 5.72244,-1.381014 15.35013,-2.168972 19.82153,-1.622251 1.61295,0.197216 4.55982,0.555512 6.54861,0.796211 2.31825,0.280575 3.61597,0.588502 3.61597,0.85801 0,0.462684 2.45298,1.555316 3.49172,1.555316 0.36037,0 0.85752,0.243757 1.10478,0.541681 0.48616,0.585788 5.26631,2.986097 5.94673,2.986097 0.22826,0 0.50899,0.244887 0.62385,0.544194 0.11485,0.299306 0.78456,0.846015 1.48823,1.214909 2.40895,1.262863 11.61748,11.273137 12.66081,13.763119 0.28455,0.679097 0.79467,1.631597 1.1336,2.116666 0.33892,0.48507 0.81471,1.516945 1.05729,2.293056 0.24259,0.776111 0.66298,1.764979 0.93421,2.197485 0.27124,0.432506 0.73347,1.928797 1.02719,3.325087 0.29372,1.39629 0.69807,2.73636 0.89855,2.97793 0.20049,0.24157 0.39525,2.47591 0.43281,4.96519 0.0768,5.09112 -0.29062,5.61924 -2.78407,4.00163 z"
         id="path1240" /></g></g></svg>
